<svg height="155" viewBox="0 0 249 155" width="249" xmlns="http://www.w3.org/2000/svg"><g fill="none" fill-rule="evenodd" transform=""><g fill="#fff"><path d="m15.4851236 133.285159v-34.5708308c0-.3602091.0559757-.7029721.1669188-1.0175136v-.0005131c.0902672-.2575854.2072617-.4910542.3479576-.6963015h-5.2329803c.1104387.2031948.2123046.4222963.3146747.6737243.1311145.3222383.1976803.6726981.1976803 1.0406039v10.7544458h-6.54513365v-10.7544458c0-.3571304.05748865-.7004065.17044881-1.0190529.09631871-.2678478.19919315-.4956723.31366617-.6952753h-5.21835603c.11396873.2026817.21835603.4192176.32324761.6675669.13767019.3268563.20675743.6788555.20675743 1.0467613v34.5708308c0 .369445-.06959152.720418-.20625315 1.046248-.1079173.255533-.21633888.478739-.3232476.668593h5.21886031c-.1190116-.2073-.22037317-.432559-.31417045-.694249-.11296016-.319673-.1709531-.662949-.1709531-1.020592v-20.105h6.54513365v20.105c0 .369445-.0665658.719392-.1976803 1.04009-.1048916.259125-.2097832.482845-.3146747.674751h5.2329803c-.1326273-.188314-.2546646-.42948-.3484619-.697841-.1104388-.313002-.1664145-.655252-.1664145-1.017z"/><path d="m23.9590095 131.288102v-18.107943h5.9948656c.2371746 0 .4764621.067218.7157496.200629v-4.085961c-.2171019.114425-.4579741.173947-.7157496.173947h-5.9948656v-8.75739h7.2214122c.3021468 0 .5979547.062601.8800288.185236.0771213.034379.1537145.069784.2281947.106216l-1.0934331-4.002836h-12.1952121c.1188514.2026817.228723.4202439.3385945.6685931.1431499.3227514.2165737.6747505.2165737 1.0457351v34.5708308c0 .371497-.0734238.72401-.2181584 1.047787-.110928.253994-.2234407.476687-.3364816.667054h23.9213574l1.0781144-3.947419c-.3702882.15958-.7315965.235521-1.0934331.235521z"/><path d="m45.8401429 107.531239c-.9174782 1.474189-1.7960583 2.889883-2.6347029 4.249133-.8422751 1.364381-1.6477266 2.633836-2.412724 3.808364l-.9231834 1.415693v-16.293045h3.6527978c1.171613 0 2.0558981.100572 2.7031638.307871.7489194.239114 1.2333314.66962 1.4381951 1.278691.1924163.571614.1146199 1.293058-.2359823 2.203843-.3163718.820476-.8505734 1.839529-1.5875641 3.02945zm6.4067885 25.814468c-.2266467-1.458796-.4766323-3.094104-.7432145-4.890017-.2629516-1.767693-.5891776-3.608248-.9693424-5.471894-.3760157-1.841581-.8070075-3.682136-1.2815652-5.469327-.4709272-1.766154-1.0310609-3.391199-1.6648418-4.829983l-.1026912-.233982.1327725-.219614c.6856451-1.131426 1.346914-2.270036 1.9656543-3.384528.6166657-1.108849 1.200657-2.225907 1.7364145-3.320902 1.3806258-2.876028 1.7898346-5.058833 1.2162162-6.486328-.5440558-1.3530929-2.1119115-2.039132-4.6610385-2.039132h-12.8752953c.1166945.2016555.2240535.4187045.3324497.6665406.1415894.3278826.2126434.6798818.2126434 1.0477876v27.0895658c0 .368419-.071054.720418-.2116061 1.045735-.1120267.257073-.2230162.479253-.3329684.669107h5.3575751c-.1192877-.2073-.2209416-.433585-.3163718-.695789-.11462-.317107-.1721893-.660383-.1721893-1.019053v-1.616322l.0772777-.121096c.6508961-1.022645 1.3412091-2.07505 2.0693829-3.155678.7224687-1.073956 1.447012-2.175108 2.1710367-3.306021l.5419812-.847158.3516395.940033c.5020457 1.341291.9418544 2.829847 1.3085345 4.427184.3646056 1.596311.6648995 3.161835.8931021 4.65347.2297585 1.491635.3952054 2.847293.4916729 4.030544.0975047 1.197105.1447012 2.007319.1447012 2.476309 0 .346355-.0451219.677829-.1332911.9857-.0824641.284267-.1649282.525433-.2458364.727089 0 .001539-.0005187.001539-.0005187.002052h5.4607849c-.1296606-.169842-.2702126-.383812-.404541-.618308-.1861926-.321725-.3039244-.670645-.3485276-1.035985z"/><path d="m57.0376138 97-1.0376138 3.966917c.0420725-.020524.0825673-.041562.1235881-.061574.2671605-.129306.5585128-.193959.86722-.193959h11.5452279v32.573775c0 .371497-.073101.72401-.2171994 1.047787-.1104404.253994-.2224585.476687-.3355284.667054h5.4331412c-.1246398-.214997-.2298211-.4459-.3213289-.699893-.1151735-.313002-.1740751-.655252-.1740751-1.014948v-32.573775h5.0392372c.2587461 0 .5395802.060548.8340879.180105.0699456.028221.1388394.057469.2056295.087743l-1.0823158-3.979232z"/><path d="m60.5440906 134.258146v-27.516813c0-.361714.0542058-.709355.1606814-1.032499l.000484-.001564c.0890524-.267376.1877844-.504523.293776-.70727h-4.999032c.1088956.204832.2090795.425821.3102313.67704.1321267.333048.1984319.690071.1984319 1.064293v27.516813c0 .376307-.0667892.733851-.1979479 1.062729-.1035718.259558-.2071435.486281-.3097473.679125h4.999032c-.1122834-.214735-.2090795-.448754-.295228-.708834-.1064756-.321059-.1606814-.668701-.1606814-1.03302z"/><path d="m84.9274593 122.504031v-21.087622l.9063503 1.128347c.8685637 1.08114 1.6783485 2.389592 2.4073123 3.890463.7205668 1.48599 1.3629366 3.11001 1.9097907 4.826903.5400315 1.696883 1.0218088 3.484073 1.431687 5.311801.4025307 1.796427.7457577 3.600038 1.0207592 5.359007l.089218.571101zm12.7524054 11.798128c-.1154586-.317107-.1742375-.659357-.1742375-1.017 0-5.276909-.3605459-9.976559-1.0721908-13.970158-.7137443-4.003349-1.5240539-7.394548-2.4078372-10.077643-.4990962-1.489583-.9955683-2.811888-1.4741968-3.927408-.4849262-1.12732-.9205201-2.104298-1.3078313-2.93247-.3920346-.836896-.7053473-1.532172-.940463-2.083774-.2629308-.6116368-.3904601-1.12886-.3904601-1.5793778 0-.3591828.061403-.7034852.1821097-1.0226448.0960406-.2550197.2052015-.4874623.3269579-.6916834h-10.4217156c.1186075.2026817.2277684.4192176.3364045.6675669.1432736.3268563.2151729.6788555.2151729 1.0467613v34.5708308c0 .369445-.0724241.720418-.2146481 1.046248-.1123098.255533-.2251444.478739-.3364045.668593h5.4213074c-.1222812-.212944-.2267188-.442821-.3201353-.697841-.1154586-.314028-.1742376-.657304-.1742376-1.017v-7.070257h8.1770949l.025191.470016c.0766225 1.44135.1159834 2.746722.1159834 3.880714 0 1.15349-.0598285 2.095575-.1789609 2.800086-.1196571.607019-.3148871 1.151438-.5825412 1.634282h5.5157735c-.1222812-.212431-.2272436-.441795-.3196105-.697841z"/><path d="m115.498352 133.285159v-21.932728c0-.361748.060177-.704511.177867-1.019053.093726-.255533.202363-.489514.322716-.694762h-5.502147c.120353.201143.231653.42127.342952.672185.145382.328396.218872.680908.218872 1.047788v19.929513h-1.221102c-2.017773 0-3.39544-.437176-4.211283-1.335646-.787086-.866657-1.186487-2.1161-1.186487-3.712411v-20.424673c0-1.632742.399401-2.901171 1.186487-3.767828.815843-.898983 2.19351-1.33616 4.211283-1.33616 1.494825 0 2.707938.387405 3.605259 1.152464.850458.726062 1.514528 1.556288 1.974638 2.467586.027692.05439.054319.109294.080945.164198v-5.7813038c0-.3617484.060177-.7045114.177867-1.0190529.093726-.2560461.202363-.490028.322716-.6952753h-8.514162c-1.527842 0-2.792079.2139703-3.758629.6352404-.946846.4130602-1.69772.9954495-2.231852 1.7312611-.543185.7527445-.931403 1.6625035-1.151872 2.7056725-.227393 1.07447-.34242 2.271062-.34242 3.556423v20.515495c0 1.286387.11556 2.503504.343485 3.617484.221002 1.080627.609219 2.019633 1.155067 2.791876.534665.754284 1.286604 1.355145 2.234515 1.785652.966018.438716 2.228125.660896 3.751706.660896h8.515227c-.126211-.214997-.232718-.4459-.325379-.699893-.116092-.308898-.176269-.652174-.176269-1.014948z"/><path d="m123.851487 131.288102v-18.107943h5.8654c.232032 0 .465614.067218.699713.200629v-4.085961c-.212911.114425-.448044.173947-.699713.173947h-5.8654v-8.75739h7.064835c.295079 0 .58499.062601.860948.185236.075449.034379.150381.069271.22273.105703l-1.069208-4.002323h-11.930792c.116791.2031948.223764.4202439.330736.6685931.140046.3227514.211878.6747505.211878 1.0457351v34.5708308c0 .371497-.071832.72401-.213428 1.047787-.108006.253994-.218596.476687-.328669.667054h11.930275l1.054222-3.947419c-.362777.15958-.715218.235521-1.068692.235521z"/><path d="m164.860055 132.229631v-25.488298c0-.361192.057451-.708312.170801-1.032499.096787-.268419.202372-.506087.315204-.708834h-5.34606c.116455.204832.224111.4253.332802.676519.140782.336696.21169.693719.21169 1.064814v27.516813c0 .37318-.070908.730724-.211172 1.061687-.112314.261643-.222558.487323-.332285.680167h11.9488l1.050165-3.982498c-.341601.143852-.674921.212129-1.008241.212129z"/><path d="m144 97c.116011.2026817.223258.4192176.331019.6665406.140245.3278826.210368.6798818.210368 1.0477876v34.5708308c0 .369445-.070123.720418-.209337 1.045222-.111886.257585-.222226.479765-.331019.669619h5.300949c-.116012-.212944-.213461-.441795-.302146-.706564-.105699-.319159-.159322-.657304-.159322-1.008277v-20.105h5.863475c.224288 0 .452186.073375.686787.223206v-4.15164c-.211398.144186-.441874.217049-.686787.217049h-5.863475v-8.75739h22.139619c.253162 0 .529012.060548.818267.179592.069091.028734.13612.057982.201602.088256l-1.061633-3.979232z"/><path d="m187.325157 97.0815858c.080805.2309032.158441.4715557.236606.7214443.09348.2929905.140485.6177944.140485.9672279 0 .555194-.070771 1.267915-.210728 2.119179-.136787.835356-.334839 1.791295-.590458 2.841135-.256675 1.053945-.584649 2.173056-.974415 3.327572-.392406 1.164779-.82812 2.328531-1.294994 3.458418l-.455783 1.10423-.486943-1.091402c-.51071-1.145794-.967549-2.313651-1.357843-3.471759-.392935-1.164265-.72038-2.283889-.973359-3.327059-.250865-1.020079-.448917-1.976531-.592042-2.841135-.139429-.851264-.210199-1.563985-.210199-2.119179 0-.585981.109853-1.1611866.326389-1.7081707.006866-.0200116.013732-.0405363.021654-.0620873h-5.903527c.165307.1724077.324277.3540516.488528.5572464.257731.3176203.436242.6665407.531835 1.0370121.621618 3.0161095 1.411713 5.9526855 2.353383 8.7502055.939557 2.798547 2.097764 5.56015 3.442403 8.208867l.053342.103649v17.628179c0 .367392-.072883.719392-.21548 1.045222-.114078.257585-.226571.479765-.339593.669619h5.397043c-.126225-.21551-.230797-.446926-.322165-.70092-.11619-.311975-.175341-.654225-.175341-1.013921v-17.286442l.051757-.102623c1.341471-2.68207 2.500734-5.501141 3.44346-8.378196.942726-2.882185 1.732821-5.876743 2.34863-8.9000361.123584-.5967565.439411-1.1396357.942198-1.6178619h-5.710756c.00264.0066705.005809.0123148.00845.0184723z"/><path d="m195.532466 98.7143282v34.5708308c0 .371497-.069474.72401-.208423 1.047787-.106493.252968-.215014.476687-.324043.667054h22.966002l1.033998-3.947419c-.354977.15958-.70184.235521-1.049718.235521h-18.189532v-18.107943h5.755699c.2282 0 .456907.067218.686627.200629v-4.085961c-.208422.114425-.439664.173947-.686627.173947h-5.755699v-8.75739h6.932702c.28956 0 .574049.062601.844845.185236.074038.034379.147569.069271.218565.105703l-1.048704-4.002323h-11.708158c.1141.2026817.220593.420757.32455.6696193.138442.3217252.207916.6737243.207916 1.0447089z"/><path d="m221.841493 107.531239c-.919061 1.474189-1.797148 2.889369-2.635298 4.249133-.842818 1.364894-1.648811 2.634349-2.414349 3.808364l-.922692 1.415693v-16.293045h3.653422c1.171647 0 2.055957.100572 2.70376.307871.748423.239627 1.23233.66962 1.438237 1.278691.191903.57264.114623 1.293058-.237027 2.203843-.315343.81945-.84956 1.838503-1.586053 3.02945zm6.405935 25.814468c-.226134-1.458796-.476127-3.094104-.743754-4.891044-.263478-1.769745-.589713-3.6103-.968852-5.470867-.374989-1.838503-.807031-3.679058-1.281083-5.469327-.470422-1.763075-1.031091-3.388633-1.66489-4.829983l-.103732-.234495.133295-.219101c.682035-1.124756 1.343323-2.263878 1.965193-3.384528.612534-1.0991 1.196023-2.216158 1.736983-3.320902 1.380147-2.874488 1.789886-5.057807 1.215732-6.4868411-.543552-1.3525798-2.110935-2.0386189-4.660135-2.0386189h-12.876185c.115661.2011424.223541.4181914.332459.6665406.141075.3263433.21265.6783424.21265 1.0477876v27.0895658c0 .369445-.071575.722471-.211612 1.046762-.112549.256046-.222504.478226-.333497.66808h5.358248c-.118772-.206787-.220429-.432559-.316381-.695789-.114623-.319159-.172713-.662436-.172713-1.019053v-1.616322l.07728-.121096c.651434-1.023671 1.342285-2.07505 2.07048-3.155678.723008-1.073956 1.446535-2.175108 2.169543-3.306021l.543034-.846645.35165.93952c.502579 1.341291.9424 2.829847 1.308054 4.427184.365134 1.596311.664918 3.161835.893127 4.65347.229247 1.482912.394699 2.83857.491688 4.030544.098026 1.199157.145224 2.009371.145224 2.476309 0 .348407-.045124.680395-.134333.986726-.081429.283241-.164414.524407-.244806.726063 0 .001539 0 .001539-.001037.002052h5.460942c-.129664-.170355-.270739-.384839-.404034-.619334-.186717-.321725-.303414-.670645-.348538-1.034959z"/><path d="m241.90543 113.66249c-.823188-.500804-1.556478-.998015-2.179488-1.476755-.652801-.501829-1.201592-1.062668-1.63174-1.667634-.437466-.61369-.763605-1.306399-.969533-2.058117-.202791-.73222-.305232-1.625046-.305232-2.653848 0-1.633769.40297-2.901684 1.197411-3.767315.808553-.881024 2.207711-1.327437 4.157228-1.327437 1.5962 0 2.855285.45411 3.739624 1.350015.764127.775321 1.375115 1.633768 1.816762 2.553276v-5.9003468c0-.3602091.058015-.7029721.173523-1.0185398.094078-.2575854.2007-.4915673.317776-.6957884h-8.356791c-1.499509 0-2.770092.2247458-3.777256.6670538-.996187.4371767-1.806308 1.0375251-2.407889 1.7841122-.604193.751205-1.037477 1.669687-1.288354 2.728763-.260284 1.090889-.391471 2.294152-.391471 3.576947 0 2.57842.679979 4.892583 2.02269 6.878351 1.35839 2.015015 3.244143 3.821192 5.602379 5.368756.859774.575719 1.594632 1.12219 2.18785 1.627098.623009.53313 1.107514 1.114493 1.441493 1.731262.329275.608558.571266 1.316148.716565 2.103784.139027.770704.209064 1.707145.209064 2.784693 0 1.595285-.402448 2.842676-1.198457 3.709332-.807508.881024-2.206143 1.32795-4.156183 1.32795-1.380864 0-2.525487-.343276-3.400941-1.019052-.845139-.6532-1.502644-1.429548-1.956834-2.309546-.068991-.133411-.134846-.268361-.198088-.402285v5.72794c0 .371497-.072127.72401-.215335 1.047787-.109759.252968-.221085.476687-.333979.667054h8.471776c1.502644 0 2.775841-.21551 3.785095-.640885.988871-.417678 1.78488-1.013408 2.363463-1.77231.587991-.77173 1.014481-1.702014 1.268493-2.767247.259762-1.094481.390949-2.29877.390949-3.577461 0-2.584576-.638689-5.015731-1.897774-7.221626-1.262221-2.206922-3.011037-4.009506-5.196796-5.357981z"/><path d="m231 136.369h.618l-.371-.369z"/><path d="m144 143h7v1.798236h-4.786943v3.311597h4.462299v1.798235h-4.462299v5.091932h-2.213057z"/><path d="m155.2597 148.555803c0 2.558899 1.198484 4.595179 3.249035 4.595179 2.067523 0 3.232564-2.054523 3.232564-4.688542 0-2.372173-1.094659-4.613959-3.232564-4.613959-2.119435 0-3.249035 2.110864-3.249035 4.707322zm8.7403-.186726c0 4.22119-2.380996 6.630923-5.613559 6.630923-3.300449 0-5.386441-2.708065-5.386441-6.406637 0-3.866518 2.2597-6.593363 5.560648-6.593363 3.423742 0 5.439352 2.783185 5.439352 6.369077z"/><path d="m168.10426 143v6.884677c0 2.312337.940797 3.381196 2.361333 3.381196 1.522282 0 2.429164-1.068859 2.429164-3.381196v-6.884677h2.105243v6.744779c0 3.643882-1.830967 5.255221-4.602731 5.255221-2.669525 0-4.397269-1.523778-4.397269-5.238111v-6.761889z"/><path d="m178 155v-12h2.621443l3.25784 5.145634c.842972 1.335379 1.572974 2.723436 2.153962 4.023526h.037657c-.150627-1.602353-.206574-3.151515-.206574-4.98504v-4.18412h2.135672v12h-2.378288l-3.296573-5.270426c-.805315-1.316967-1.647749-2.795039-2.265857-4.147807l-.055947.017901c.093066 1.548651.111894 3.133103.111894 5.109832v4.2905z"/><path d="m192.135056 153.232737c.295247.052762.746097.052762 1.180988.052762 2.777916.017587 4.426213-1.521544 4.426213-4.512876.018453-2.606424-1.474739-4.093296-4.14892-4.093296-.677273 0-1.163034.052259-1.458281.122608zm-2.135056-9.988024c.937609-.157279 2.135056-.244713 3.402324-.244713 2.187921 0 3.69807.454755 4.774824 1.364264 1.128124.927097 1.822852 2.326536 1.822852 4.338512 0 2.098907-.711685 3.673213-1.822852 4.687744-1.163034 1.067292-3.020797 1.60948-5.295995 1.60948-1.249813 0-2.187422-.069846-2.881153-.15728z"/><path d="m208.02373 149.943869-.98486-2.955632c-.241277-.72983-.445722-1.549163-.631484-2.243192h-.037366c-.185762.694029-.371524 1.530751-.594652 2.243192l-.966177 2.955632zm-3.586597 1.655543-1.077207 3.400588h-2.359926l4.013636-12h2.917747l4.068617 12h-2.452273l-1.13379-3.400588z"/><path d="m214.395191 144.834037h-3.395191v-1.834037h9v1.834037h-3.43024v10.165963h-2.174569z"/><path d="m222 155h2v-12h-2z"/><path d="m228.2597 148.555803c0 2.558899 1.198484 4.595179 3.249035 4.595179 2.067523 0 3.232564-2.054523 3.232564-4.688542 0-2.372173-1.095158-4.613959-3.232564-4.613959-2.119435 0-3.249035 2.110864-3.249035 4.707322zm8.7403-.186726c0 4.22119-2.380996 6.630923-5.613559 6.630923-3.300449 0-5.386441-2.708065-5.386441-6.406637 0-3.866518 2.2597-6.593363 5.560648-6.593363 3.423742 0 5.439352 2.783185 5.439352 6.369077z"/><path d="m239 155v-12h2.62184l3.257665 5.145634c.842926 1.335379 1.573427 2.723436 2.153846 4.023526h.037655c-.150081-1.602353-.206025-3.151515-.206025-4.98504v-4.18412h2.135019v12h-2.37816l-3.296396-5.270426c-.805272-1.316967-1.64766-2.795039-2.265734-4.147807l-.055945.017901c.093061 1.548651.111889 3.133103.111889 5.109832v4.2905z"/><path d="m0 155h132v-3h-132z"/><path d="m0 149h132v-7h-132z"/></g><g fill="#3b2314" transform="translate(7 2)"><path d="m99.5209139 57c.1659051-.2209716.3212654-.4609005.4790861-.6972749-.3346221-.092417-.6653779-.2168246-1-.3027251.1901582.3151659.6653779.4111374.5209139 1z"/><path d="m56 64.4624146c-2.2009029.8701594-1.4670634-1.2331056-3-1.4624146.2437923.6955201.6150215 1.3551 1.0090293 2 .6476504-.0673247 1.3162323-.1295874 1.9737329-.1923564.0043094-.0870665.0129283-.2596811.0172378-.345229z"/><path d="m99 57.6884477c-.9292233-.3422383-1.9417024-.5873647-3-.6884477.6168747.4956679 2.7094431.2909747 2.5708698 1 .1547774-.0971119.2978208-.200722.4291302-.3115523z"/><path d="m121 55c.507762.6466297 1.294942 1.0431139 2 .9962567-.541813-.6696979-1.335503-.7345771-2-.9962567z"/><path d="m125 56.974c-.203978-.259-.525242-.579-1-.974.325854.44.659867.752 1 .974z"/><path d="m123.616506 57.3889929c-1.058589 1.049951-3.217052.4483307-4.616506.962043.468955.2587792.909857.7708432 1.490493.6224985 3.814096-.7279881 7.686943-.8027099 11.509507-1.4191646-.261471-.3137217-.620333-.5257997-1.022068-.5543698-1.762021.0604367-3.569561.6373329-5.23578.0587885 1.049591.7065604-.959081.5686548-2.125646.3302044z"/><path d="m136.73214 58c-.739854.5534034-.728466 1.9308246-.73214 3 .804509-.0669618 1.353338-2.8627559.73214-3z"/><path d="m87 75c.0211961.0925229.0630835.2803014.0852889.3739954 1.3298007.1097001 2.5616957.6648374 3.9147111.6238463-1.3131466-.3821937-2.6853394-.6273598-4-.9978417z"/><path d="m216.981439 48.4182454c1.32222-.4116147 2.593625-.9436024 3.804975-1.621466.783785-.1877004-.536382.9456426-.899787 1.1766977 1.469533-.0984407 2.91648-.4197756 4.345463-.7635529-2.04287 1.1685369-5.266295.9711455-7.250651 1.2083212zm-1.595287 1.3388954c-1.092269-.0867094.544594-.3172545.999877-.433037 2.763009-.9752259.195048.9665549-.999877.433037zm-1.468506.1611775c-1.033754.0499854-1.988976.4865928-3.004765.6008452-.335688-.8165987 2.12243-.0219324 1.76775-.7671233-.442964-.0918099-1.032214.0912999-1.367902-.2407461 1.192872-.1637278 2.394984-.3580589 3.600175-.4723113.127808.5115855-2.224573.3447974-.995258.8793355zm21.814062-8.9183183c-1.100994 1.1726173-2.887223.8925969-4.321852 1.1231419-12.888051 2.3034101-25.805873 4.4283008-38.688791 6.7556835-.021045-.5273972.438858-1.6015739-.879769-.7803847-1.618385.2550277-3.30247.2795103-4.841296.8716846 1.428983 2.0458321 3.009385 3.9820024 4.434775 6.0298747 9.883799-1.8948557 19.934415-3.1807053 29.575944-6.1951326 5.012733-1.574541 10.681956-2.3467648 14.515675-6.2588896.349034-.3070533.752475-1.3470562.205314-1.5459778z"/><path d="m84 75c.513455.7437092 1.330034.7530289 2 1-.2975564-1.0130475-1.3504485-.8499534-2-1z"/><path d="m154 23.1953883c.408131.038.736513.041 1 .02-.286161-.254-.624707-.311-1-.02z"/><path d="m165.931833 30.7918534c.793497-.4201939 1.242792-1.3401271 1.004164-2.0536067-.238145-.7134795-1.074547-.9509012-1.868045-.5301001-.793015.4201939-1.24231 1.3401271-1.004164 2.0536067.238628.7134795 1.07503.9509012 1.868045.5301001z"/><path d="m129.893562 91.6936539c-2.022324.7838032-3.314407-1.4157067-3.967531-2.9281229-.984669-2.8886289-1.896944-6.8754937.662042-9.2076628 1.956224-.5281052 3.035321 1.5746952 3.739855 2.9893891 1.108475 2.852173 1.796747 6.633973-.434366 9.1463966zm-5.606898-9.4537406c-.001574.0005063-.003148.0005063-.004197.0005063l-.169969-1.2253255c.336267.1681025.447481.5868398.174166 1.2248192zm13.065624-.3858256c-.043541-.1210136-.089706-.2394955-.137444-.3579774-.022558-.0567092-.046689-.1129122-.070296-.1691151-.674633-1.5979865-1.705467-2.9347052-2.943517-3.8693957-.582827-.4400032-1.21182-.7903855-1.870714-1.0379823-.801585-.301268-1.646712-.4475982-2.508625-.4151929-.187281.0070886-.375612.019747-.563942.0440509-2.279901.2941794-4.14432 1.8091273-5.228663 3.9514216-.018886.0025316-.037247.004557-.056132.0070886l.011541.0825323c-.826241 1.679506-1.177721 3.7331921-.87975 5.8835877.427022 3.0840733 2.087373 5.6380162 4.264453 7.0005579.201445.1260769.408137.2410145.617976.3463317.791617.3002554 2.194391.5979791 3.651198.680005.035148-.0040507.069771-.006076.104395-.010633 2.166587-.2794957 3.959137-1.6612781 5.061841-3.6369888.344136-.8238036.101771-1.9027989.3583-2.6906528l-.068723 2.1210283c.76906-1.6481134 1.089589-3.6374952.801061-5.7180168-.107018-.7736766-.291676-1.5144416-.542959-2.2106492z"/><path d="m126.307754 80.0404214c-1.910115 1.5832752-1.252372 4.5033726-.945669 6.6403675-.645224.611332 1.363474 2.1599331.525778.2165801.327567-1.720905-.647311-3.3191169-.544555-5.0432226.567505.2800605.570113 1.5923439 1.253415 1.4232407.464749-.8332466.652527-1.835063 1.282625-2.5632202.273842 1.352292-.489265 2.8182086.09441 4.0707458.662438.5435841 2.986185 1.456848.88099 1.8142585-2.315402.0442763.661394 3.142012-.429802 3.5997108-.734419-1.0247546-1.211165-3.5682373-2.661225-2.1113893.481441 1.2877448 1.408853 3.2529692 3.031564 2.8619514 1.552816-1.9364182 1.39164-4.7770317.703644-7.0351194-.486657-1.3885666-1.212208-4.2899932-3.191175-3.8739033z"/><path d="m127.55783 87c.784779-.2891949.4479-3.2248427-.407308-2.9862201-.264716.9780583-.210593 2.3292713.407308 2.9862201z"/><path d="m187.902297 74.600013v-.0005156c-.042982-.3113908-.100291-.6171107-.168744-.9161284-.145396-.6341238-.34704-1.2383458-.595911-1.8064795-.026002-.0412439-.048819-.0644435-.065269-.0613502-.428229-.7413578-.864947-1.5285993-1.377548-2.2534595-1.53727-1.7951375-3.673106-2.7999401-5.877394-2.5138111-2.279108.2959244-4.115661 1.9044336-5.090982 4.1439733.239851.4763662.930216 1.3161935.930216 1.3161935s.471211-1.2445324.553991-1.4110543c.582645-1.1842133 2.42928-1.358984 3.399825-.4727574 2.480222 1.9260867 3.308024 5.2967382 2.729624 8.238454-.136906 1.4780756-1.308033 3.3866336-3.055969 3.0561674-2.811874-.6568079-2.750319-2.7220924-3.753233-4.8379006-.912705-.7408422-1.530903-1.1713246-1.530903-1.1713246l.420269 2.1271502c1.163168 3.7934008 4.364532 6.3510335 7.723498 5.9143645 3.578121-.4645086 6.065241-4.1620175 5.842372-8.4606551-.044044-.4866771-.083311-.8872578-.083842-.8908666z"/><path d="m161.858223 45.8803573c.608232-.1507968.272049-1.2301305 1.193189-.9848274.627885-.9982546 2.596361-1.0974087 2.019162.5525775-1.767801.0433799-.074477 2.7257049.857523 1.5384379-.740635-.4627192.729257-.9595225.117405-.0733328.660469-.4208885 1.003375-1.2884868 1.998992-1.051963.278255 1.1852014-1.42593 1.387641-2.139154 1.7770274-1.614709 1.5007386-2.308279-1.8932236-4.047117-1.7579196zm8.440761.5210755c1.18905.1125812-1.807626 1.3458103-1.989682 1.0333716.6584-.3496215 1.30749-.7266136 1.989682-1.0333716zm-.514101-6.0251609c.943379-.0836613 1.193706 1.1531828.23119 1.3644017-.280841-.3243165-.801665-.8608848-.359456-1.2569848-.914416.1817825.18309-.9228561.128266-.1074169zm-13.313851 4.96855c.403419-.2561481.855972.2168996.992514.5737511-.446864.0464785-2.017094-.1368533-.992514-.5737511zm-2.329484 7.5806409c-1.282665-.6408867-4.309856-2.1999817-2.296383-3.7910951.394626-1.1846849 2.066227-1.1826192 1.865552-2.6647665.71943-.3594336-.174814 1.2569848.583406 1.3752468 1.110953.8526219 2.578259-1.7930367 3.019951.0108449-1.176121 1.4811144-1.77918 3.6268711-3.172526 5.0697699zm-3.865061-19.3644861c-.36256-.9677853-1.459031-1.0065174-2.200184-1.415528.861144 2.6565036-1.415068-.2478853-.246189-.8624341.709086-.5045498-.15154 1.1309764.522893.5675539.558063-.8732791 2.331553.4394799 1.809178-1.0576437-.524962-1.5177808-2.185185 1.1423378-2.440683-.4343156-.446347-1.8074967 2.291728.5293383 1.49989-1.4398002.634091.042347.935103.8102749 1.665395.7069894-.051721 1.1387229 1.827279 4.258462-.6103 3.9351783zm-1.959684 10.2970501c-.394109-.5536104-1.057164-1.0271745-1.026132-1.7744452.438589.2112189 2.259662 1.3267025 1.026132 1.7744452zm3.518018-20.0518511c.948551-.3170866 3.588874 3.206499 1.587814 1.5931791-.34032-.524174-2.043471-.9244054-1.587814-1.5931791zm1.663843-3.642364c.608231-.423987-.070857.710088-.394626.7260973-.762358.2943637.171194-.5231412.394626-.7260973zm1.15957 3.171382c.773219.5355354.962516 2.7861269-.214639 1.6277798-.507377-.4482592-2.091571-1.8167923-.62892-1.6308784.402902-1.2564683 2.42103-.0960555.843559.0030986zm-2.813069 21.2375689c-.110682-.6109338.232741-1.1722906.632539-1.5993763 1.233013-.0738491-.05172 1.3561389-.632539 1.5993763zm3.436817-.0624877c.092579.5190097.899934.2437538.939241.7834207-1.365417-.1507969-2.688424 1.1134179-3.971088.7317779.935104-2.357492 1.970028-2.2030802 3.654559-3.4843371.899934.2261953-1.069059 1.141305-.622712 1.9691385zm-113.2044561 30.8818545c-.9563091-1.3814438-4.7867179.3134716-6.1511005-.1012198 1.3369709-.3940343 2.432925-1.3081111 3.6219757-2.0001241.9495855-.3227673.8813146 2.2614365 2.2306984 1.3576882 2.1029492-.103802 4.5405291-.9739825 6.5002129-.4885406-2.0879503.3015938-4.1350415.8175049-6.2017865 1.2321963zm-4.1262491 1.0875965c.6682269-.7958149 1.9731312-.4539398 2.8973737-.8216363.7064999-.2793873 1.2909398-.0759148 1.7491821.613516-1.5360942.2587303-3.0996003.1270412-4.6465558.2081203zm-8.4666204 1.3499418c.7333945-.6408866 2.3036242-.6042203 3.1280465-1.3571717-1.3773128.0340842-3.0980487.3155372-4.2948574-.02892 2.4008584-.3108894 4.8006824-.6584452 7.2030924-.9538418-.2461889.5949246-1.7021166.1848811-1.9984742.9961889.8125267.2070874 2.0139903-.3191523 2.5213668.0733327-2.1784609.4580713-4.360025.938349-6.5591741 1.2704119zm-19.87147351-.1843646c-1.08198961-.4064286.14740298-.941964.61340331-.2824859 2.0181278-.003615-.1867105 1.7728959-.61340331.2824859zm132.73612611-59.1345761c1.042165-.0330514 2.387929-.6651588 3.354065-.0722999-1.069577-.0552577-2.380688.7333272-3.354065.0722999zm-23.917556 3.9646147c-1.547472.0025822-3.09029.2432374-4.63466.0681685 1.184396.9393818 3.25321-.2737067 4.746376.4410291 1.575919 2.2314837 2.873065 4.6493978 4.20383 6.9851999-4.113836-2.0858511-8.234913-4.2150822-12.077218-6.7528074.956309-1.1242629 2.658943-.8040778 3.952986-1.3168904 1.202498-.4761463 3.464229-1.3359983 3.808686.5753003zm4.533288 2.4344398c.175332.113614.342389.2339417.498585.3640814-.174298-.1007034-.339803-.2241296-.498585-.3640814-1.650396-1.0695216-4.016084-1.5250108-4.691035-3.5834912 2.246215-.6465674 3.162182 2.2381972 4.691035 3.5834912zm5.578557 6.4150637c.059478.0846941.176883.2556317.234293.3403258.753565.2556317 1.565058 1.2921019 1.750734 2.0450533.529099-.7421064 1.870207 1.4713023.732877.6527645-1.950891.0123943 1.594021 1.6081556-.395661 1.6350098-1.186982.0774642-4.078666 2.4075855-4.424675.2096696.522375.6078353 1.79573.2685424.756668-.2799037.267395.5143619-.620644.3191522-.390488-.0924406-.342906.0438964-.482551-.1048348-.416866-.4503248-.946482-.9961889-1.418172-2.3724685-2.205873-3.5034449l-.076546-.1244591c-.560131-.816472.538926-.3372272.538926-.3372272s2.843067 1.508485 2.910821 1.5399871c.05172-.0475113.154127-.1440833.205847-.1910782-.121543-.156994-2.888064-1.5988599-2.888064-1.5988599-2.984781-1.5208793-3.615252-5.3496736-5.526836-7.9085724 3.845408 1.5828507 6.738644 4.9210387 9.194843 8.0635007zm-1.673671 8.3325595c-2.880823-2.6699308-6.174374-4.8983159-8.846764-7.7810148-.60668-2.1132218 1.036992-.1151634 1.901239.0330514-2.966161-2.4581955-6.008352-4.9680336-8.947619-7.5109232 2.988919 1.0137474 5.642689 2.9095532 8.513686 4.2409035 1.515923 1.0431838 3.447161 1.5177808 4.395712 3.3170146 0 0 1.414551 2.3709191 1.915204 3.5762612.048617.0898584.147403.2690587.196537.3589171.187745.324833.606163.9719168.146369 1.2084406.683226.6284924.849248 1.7666989 1.810212 2.0755226.20895.6109339-.677019.9621046-1.084576.481827zm-35.1770746-3.4962149c-4.2643424-1.1841686-8.5638546-2.7442964-12.8090605-4.173768-.0522376.0686849-.1598159.2024397-.2125706.2690588 4.174349 1.448063 8.4371398 2.9240131 12.6404522 4.2878984-.4003155 1.1118687-3.2283839-.0743655-3.5537049-.2019232-.6087485-.2675095-2.5172292-.8479741-2.8316889-.9636539-.7323601-.3160537-11.4839853-3.8794042-11.6758677-3.9289812-.4266929.0800463-.8580406.010845-1.2800786-.0599056.4887573.3522036 18.2190086 6.4961429 17.9562692 6.505955l-.4096251.3981657c-1.799868 1.4315373-3.3509611 3.292226-5.3432288 4.4376624-.6180581-.2122517-23.5218955-7.6214386-34.1866305-11.5039414 5.946288-.1761018 11.9122297-1.7599853 17.8295544-1.2735105-1.2350819-.7168015-2.6868719-.9078797-3.9369527-1.5766535 1.4848911.1332384 2.8337577.8366128 4.2229662 1.3225712.8114922-.2737067 1.7217702-.4146914 2.5374001-.0846942-.6175409-.5639389-.3537672-.595441.2968747-.3129551 10.3140711-1.3458104 20.7414098-1.9872134 31.0756521-3.2973903-3.5335342 3.5111913-6.9036319 6.7744974-10.3197606 10.1560654zm-8.4061076 7.5713451c-4.4070906-2.2325165-24.9054147-8.3082873-34.2264552-11.4920635-.1975717-.41056-.2286039-.9300862.3677317-.6822009 10.9869528 3.6377161 33.8995826 11.3727688 34.3945463 11.4956785-.0196538.0852106-.3015296.7973643-.5358228.6785859zm-28.7187557-20.1861223c.4070391.8386784-.668744.4472263-1.0923337.2768052-1.441446-.5412162-3.4187147-.6522481-4.4919119-1.7140233 2.0739858-.8082092 3.6473187 1.1645443 5.5842456 1.4372181zm10.6057739 3.9155541c-1.159053-.2917816-2.6775623-.5200426-3.5138802-1.2497548 1.1430196.4425785 2.5187807.5262397 3.5138802 1.2497548zm106.011707 14.174905c.545133-.2613124 1.905895 1.6778733.840456 1.2368441-.223432-.3857714-1.326627-.8391949-.840456-1.2368441zm9.729114 8.6981902c-1.412482.1327219-2.859618.2220638-4.173832.7880685-.618058 2.1535031-3.851614 1.1361407-4.415883-.6481166-2.987367.3217344-5.889395 1.1366571-8.882452 1.3974531.519273-1.1299436.976481-2.293455 1.55368-3.3944787.728222-.1915946 1.915204-1.245107 1.993819.1187783 1.19474-.5081647 4.601559-.962621 3.563014-3.0319464 1.592987-.1549283 2.896857-1.0813994 4.162454-1.9820492-.263774-.3150208-.513583-.6414031-.761841-.966236-.862178-.0640371-2.567398-.9662361-1.776077-1.9205943-.286013.00723-.625816.3046923-.859592.0433799-1.095437-.7369422-.737015-1.0566109.411177-1.1190986-.877177-.2179325-2.527573-.3919686-.617541-.9125276-1.034924.3052087-1.725391-.8515891-.804251-1.4692366-1.313697-1.2760926-2.143808-3.730673-4.157281-3.9140048.178952-.3475558.451001-.6321074.694087-.9342175-1.414552.7663785-1.220083-2.5201668-2.839965-1.7011126.389455-1.2399427-1.378347-1.8142102-.935621-2.8723703-.406004.1642239-.795458.3640814-1.21129.498869-3.632837-6.5291942-9.922548-12.069946-14.521521-18.3156215-41.506094 3.6852274-83.0375305 7.1081096-124.5048339 10.9658238-6.8244994.6718723-13.24040816 3.445605-20.07473448 3.8845685-.75925466.3630486-1.530405.4911226-2.03985039-.2494345-.20119214.1032855-.60305922.4699491-.68736338.7002758-.26480816.7219658 1.33800531 6.4191952 2.88547802 7.022899 5.6747562 2.4163648 12.04515103 2.2841593 18.06901953 1.7377789 6.3062616-.6398538 12.6311426-1.1165165 18.9291289-1.8761815 1.4802363 5.8862419 6.7919156 30.8725588 7.4518672 34.0046923-.7680471.1234262-1.5345426.2545988-2.2969005.3950671 1.3592107.1285905 2.6635978-.5365683 4.0357385-.4405127-2.1205341-8.9403948-3.9995342-17.9783943-5.8557774-26.9905725.5239271.8923869.8161471 1.8927072 1.2112905 2.8449997-.1329213-1.455293.8368352-1.9758521 1.3669687-.8805091-1.0964713-3.0489886-2.4551648-6.0086352-3.5645662-9.0545253 1.6478102-.3738935 3.3866482-.4596205 5.005495.0939899-.5068594-2.4881482-1.2143937-4.9499587-1.2961118-7.504726-.6997763-.6574124.2275695-2.0667433.9170017-2.2645351 2.9377155 14.1222294 5.6690669 28.2893879 8.6703985 42.3976738-1.7238391-10.7003801-4.4050217-21.2809489-6.274195-31.9720332 10.0668479 3.1274855 34.1204285 10.6709436 33.5561595 11.4946456-.7214988 1.3359983-10.542675 10.3244208-10.636806 10.5005226.030515.0841777.0894762.2515002.1184396.3361944.1737803-.0981213 10.1651165-10.2009946 12.0141188-10.7886892 3.5557737.9750153 6.9786261 2.379182 10.5266417 3.3800187.0460311-.0717834.1349901-.2127682.1794696-.2840352-3.4316449-1.1278779-6.8731166-2.2407794-10.2892453-3.4228822-.2042954-.6212624.7933901-.6104174 1.182327-.4121092 4.0465998 1.4119131 8.1345758 2.6885221 12.1946229 4.0601539-.0181022-.0903749-.0553408-.268026-.0729257-.3563351-4.1319383-1.5038372-8.3424916-2.760822-12.5039105-4.1701529 1.9617527-1.7749617 4.052289-3.4512857 6.1205856-5.1095348 1.7672841.4725313 13.8626043 4.7031063 14.4956613 4.8941845-.009827-.0872763-.027412-.2602795-.037239-.3475558-.468069-.1993411-12.390643-4.2047536-13.9138071-4.7537161-.2622222-.3599501-.208433-.7684443.033101-.9352504 5.2951289 1.8436465 16.9218621 5.7545528 17.1411561 5.7927684-.005172-.082112-.019653-.2473688-.026894-.3294808-.103441-.0361499-11.8605095-3.9888868-16.9311721-5.8965704-.0320666-.2824859 9.3122481-10.8687354 15.0413111-12.162903 4.774822 3.8432542 9.494303 7.7670712 14.204992 11.6924374.141197.1192948.282393.239106.424107.3609829.563235.5789154 1.995371 1.18107 1.764698 1.9505471-1.310593.9068469-2.126223-.809242-3.246486-1.1407886.470655.4895734 1.13733 1.3959039.017585.8231856.44945.6486331 1.597124.5975068 1.796248 1.3788618-.684778.5422489-1.306974 1.1640278-1.852106 1.8451958-.786149.8515891-2.652219 3.1677669-3.324584 2.7819955-.523927.1316891-1.020442.2690588-1.527301.4291514 1.078886.3392929 2.11381.8572698 3.23459 1.0504137.628919-1.365951 1.617812-2.6756114 2.942887-3.416685 1.886759-1.5451514 4.859644-.2886831 6.355396-2.4344398-.066719-2.3698863 3.163734-1.8813458 4.611904-3.0851385 1.214393-.2737066 2.930991-3.0608664 1.163707-1.1444036-.979583-.8779269-3.222694-2.1566017-2.379653-3.7358373-.229638.2153503-.44376.445677-.686846.6439852-1.661775-1.683554-3.245452-3.4507693-4.882918-5.1570461.236362-.520559.377042-1.4129459 1.121297-1.041118-.246706-.3134716-.512031-.6129996-.80632-.8794762-.325838.3862878-.653228.7782564-1.046302 1.0963758-2.902546-2.8042019-5.265649-6.2591026-8.487309-8.6816645-1.175603-.4281185.510997-.7033744.636678-1.3494254 1.670049.4394799 3.865061 1.2972662 5.129623 2.739132-1.055095.0351171-1.820039-.9672689-2.878754-1.0013531.925794 1.1562814 1.947271 2.2345823 2.909269 3.3593616.892176-1.7899381 4.357439-.1099991 5.974217.8366127l.140162.067652c.357905.196759.72512.3769922 1.097506.5541269 1.528336.8159556 6.512626 3.1016642 6.62279 3.1331663-.743221 2.6415272-4.086941 2.7200242-6.47487 3.0949506.084305.0697177.24981.2127682.332562.2824859 1.371106-.1848811 2.737041-.4208885 4.114354-.5969903-.142749.7736086-.158782 1.5611607.183607 2.2908729.68426.6749709 1.411965 1.3473596.66202 2.278995 1.956581-.5727182 2.849791-2.6688979 3.730071-4.3168184-.487722.2886831-.662537.1213605-.576164-.38887-.604094-.8082092-.652194-1.890125.66202-1.2600833.093614.0392485 1.087162.6186803 1.087162.6186803.097234-.0511264.289634-.1538955.384799-.2070875-.124646-.1528626-2.754108-1.4645887-3.550084-1.7914874l-.146369-.0578399c-.171711-.0883091-.341354-.1755854-.508928-.2607959 0 0-5.025149-2.3724684-6.570035-3.1997855-.271532-.1580268-.547719-.3057251-.828043-.4415456-.0962-.0392485-.289634-.1192948-.385834-.160609-.762875-.4425784-1.580056-.7880685-2.35793-1.1960463 2.920648-.5882111 5.913704-.5489626 8.860212-.9615882.400833 1.2688626 2.240525 2.0956632 3.043225.7044072-.300495-1.2647312-1.005961-2.7334513-.618058-3.9418919 1.201463.0051643.895796 2.2418123 1.267148 3.3046203 2.001578-1.291069 6.134033-1.2786748 8.509549-.1792004 1.303352.934734-.108096 1.8389987-.922174 2.4385712 1.020959 1.4630394.120508 3.4776235-1.667981 3.7528794-.128267.7426229-.859592 2.1607331.622713 2.2325165-.205847 1.241492.236362 1.2926183-.245672 2.846549.542546 1.7754781-.653228 3.6000169-.229638 5.2525852.988893-.2323924 2.076054 2.0997947.692018 1.1779714.184124.916659-.021205 2.0331755 1.136296 2.2387137.507894 1.1041222-1.758492-.5060991-1.51282.8541712.704431 2.5986637 2.221906 4.7733404 4.093148 6.6407426-.714775 1.0963758.313942 2.6627008-.801148 3.6196411-1.787973 1.8074967-3.501468 3.9801076-6.044557 4.712402.085856.5675539.217225 1.1180657.267394 1.6964646-.866833 1.4418659-2.256041-1.5467006-3.7099-.5866617-1.314731-.4038464-3.119254 2.9054217-3.259416.4467099-.289117 1.0090995-1.869691.5479297-1.338523-.3790579 1.322489-1.2797076 2.393101-2.8005869 3.45854-4.2997763-7.583754-2.7257049-15.26526-5.3589692-22.992797-7.714912-.200675.2287774-.398763.4591041-.595818.6894309 1.543852.113614 3.336997 2.0145841 4.595353.7761907 4.278824 1.5363721 8.696776 2.742747 12.900605 4.4681316-.242568.8810255.846662.9393818 1.480236 1.134075.121026-.8495234 1.170432-.5432818 1.022512.2251625 1.109401-.2809366 2.176392.0562906 3.209247.4570384-.779943.9414475-1.481271 1.9515799-2.371895 2.7995541.208433-.8304156.925277-1.3953874 1.315766-2.1349118-2.013991 1.5007387-2.644979 4.245035-4.250378 6.1186343-7.741502.8619177-15.483003 1.7548211-23.213125 2.7463621-.125164-.4012643-.229122-.8603684-.749945-.6506988-6.986385 1.2502712-14.530314 1.0235595-21.1515525 3.1858419-16.1527807 1.7362296-32.2848734 3.7224102-48.4293789 5.5330054-5.5883832 1.0793337-11.7177613.8082092-16.9208279 3.06758-3.8707506.9497103-7.9333837 1.6923332-11.6107002 3.0200686-.77373632 1.0715873-.63667741.4720149-.37342085-.3134715-1.0349241.7787728-1.33800531 2.4881482.2549813 2.9839187 4.04297935 1.5616771 8.48575695 1.5580621 12.75578855 1.3711153 18.2510752-1.8245388 36.4219838-4.466066 54.647716-6.5544992 1.3695547.2659602 2.6966988.8180213 4.0864244.9326682-.994065-.6734216-2.4199949-.5660046-3.4652631-1.1020565 2.7773825-.8536548 5.2940945.9698511 7.9530374 1.4635559-1.3711063-1.0968923-3.4254384-.9765646-4.9356725-1.8488109 1.8717593.0444128 5.6007961-1.8797965 5.7357862 1.2012106.6599516.8836077-1.2847333.7121537.1484374.892387 2.4137885.3785414 4.7422384 1.4150116 7.0815496 2.1555688-.3930746.8355799-1.6240188-.0624878-2.3424144-.2014068.6475387-.2768052-.1329213-.3460065-.41428-.4622027.0413763.1079334.1256805.3217344.1670567.4296678-1.3199031-.2256789-2.588086-.6858159-3.9090236-.9078798.6930526 1.9650071 2.6036021 4.7490683 5.0303207 3.4936328.3884198.567554.6387463 1.3137918 1.3612795 1.5291422-.0382731.3072744-.2192943.5221083-.4328993.7116372-.2332588.1234262-.4365197.303143-.6009904.5221083-.0925794.1022527-.1670567.2143175-.2099846.3444572-.2006749.41056-.2880823.9052976-.2187771 1.4222417.0015516.0113614.0046549.0227228.0062065.0340842.0398246.2711245.1199912.524174.2306727.7529514.1215428.2504674.2803243.4699492.4660003.6506988.1510234.1471819.3191145.2685424.5001357.3584008.0946483.0469949.1923997.0846941.2927372.1141305.2151566.0624877.4411745.0846941.6708129.0537085.5958183-.0795299 1.0809552-.4807942 1.3545558-1.0406017.2011921-.4100435.2885995-.9052976.2192943-1.422758-.1013719-.7575993-.5125487-1.3824767-1.0561295-1.716089-.1624019-.3465229-.3248037-.6904637-.4225552-1.0493809.9687221-1.0452495 1.8629668-2.3141121 3.3814761-2.5630302 5.5795908-1.5740713 31.5980268-8.6083318 37.0136648-10.7287835.030515.0826284.091545.2515002.124129.3341286.224983-2.9384731.524444-5.8733312.866833-8.8004428.868384-2.4680076 4.744824-3.3624602 6.061624-.7978807-.151023 2.2567886-.944931 4.4454088-1.225255 6.7001318 6.475387-1.6091884 13.117314-2.4783361 19.661489-3.7735365 1.075783.8763776 1.741941 2.1540195 2.767556 3.0913356-.927346-2.4075855-3.333894-4.1572422-3.726968-6.7435117 1.57385-.9894753 2.978574-2.2010145 3.852648-3.8809535 1.405242 2.0894661 2.791347 4.2047536 4.072977 6.377881 6.378153-1.5580621 13.080075-2.233033 19.468055-3.7941936-2.056918-1.9174957-4.003672-3.9599669-6.085416-5.8433784z"/><path d="m132.956392 48c-2.176171.4207752-.113637 1.56348 1.018463.6630745.183526-.8606592-.687156-.3042117-1.004059.1062448-1.00139.2270122.785855-.7532679-.014404-.7693193z"/><path d="m172 5.5515514c.249404-.018.750119-.05 1-.064-.10825-.808-.804006-.487-1 .064z"/><path d="m176 5.55123329c.249762-.018.749762-.05 1-.064-.108198-.808-.803622-.486-1 .064z"/><path d="m180 5.42258018c-.091889-.709-.807147-.41-1 .053.328985.135.669881.111 1-.053z"/><path d="m198 3.54755637c.249761-.014.749761-.045 1-.06-.106972-.808-.805635-.486-1 .06z"/><path d="m202 3.55196945c.249404-.018.750119-.05 1-.064-.108727-.809-.804483-.487-1 .064z"/><path d="m206 2.55196945c.249404-.018.750119-.05 1-.064-.10825-.809-.804006-.487-1 .064z"/><path d="m210 2.55196945c.249404-.018.750119-.05 1-.064-.10825-.809-.804006-.487-1 .064z"/><path d="m213 2.55228526c.249404-.018.750596-.05 1-.068-.10825-.804-.804006-.483-1 .068z"/><path d="m217 2.54787494c.249762-.014.750715-.046 1-.06-.108198-.808-.803622-.487-1 .06z"/><path d="m138.86343 22c-.28301.1069619-.572666.1987672-.86343.2840769.317902 1.1965009 1.372405.7487333.86343-.2840769z"/><path d="m132.455907 30.5768215.076-.294c-.385-.899-.936.666-.076.294z"/><path d="m168.30493 28c-.611.3760518-.229 1.0463684.486.9974648-.083-.361718-.244-.6947684-.486-.9974648z"/><path d="m120 36.2236283c-.679286-.6977244-1.463857.4285918-.659022.7763717-.426866-.7857516.344929-.6241278.659022-.7763717z"/><path d="m143 33.0163825c.009901.990408.033239 1.9873549.265207 2.9687089 1.724203.1846011-.206508-1.3958264.37907-1.9370549.445549-.3515973.082745-1.1740031-.644277-1.031654z"/><path d="m120 37.9691812c-.245157-.4609813-.559322-.8915507-1-.9691812.049031.6866701.485472 1.1228417 1 .9691812z"/><path d="m181.454556 30.3678551c-.481361.3051763-.995436 1.0806157-1.564034.5337981 0 0-.281443-.1661283-.37595-.2213309-3.081333-1.630558-6.248865-3.1043616-9.319812-4.7557507.189532-.5666072 1.628422-.9249029.881716-1.8065812.825635-.4119359 3.000327-2.3648559.986089-2.6809685-.703608.8920938-4.613692 1.3660024-2.676305-.155192.82979-1.1946663-.949221-.2708049-1.413446.1255076.003635-.8160601-.820962-2.6174335.881197-2.2591378 10.327192-.9420886 20.65698-1.9664602 30.962881-3.1543563-5.86928 5.0265556-12.261982 9.5693078-18.362336 14.3740117zm-4.160371 2.9627098c-.481361.9358393-2.590626 2.6356608-2.933862.872825 1.197431-.1723777 1.895327-1.418601.219131-1.3045505-.059196-1.7196111 2.623859-1.5977489 2.08434-3.3189224.932604.371836 1.752528.9660444 2.677343 1.3566284.097622.0468701.295982.1406103.395163.1874803.244575.9358393-2.110303 1.0691586-2.442115 2.2065392zm-3.015906-.0885324c.954933-.4733878 1.447718.4791164.258595.6035825-.402951-.1067596-.968953-.4463073-.258595-.6035825zm-7.495626-6.2175764c.342197-.4942189.783575-.9295899 1.270128-1.2863233.753457-.2442451-.745149 1.3347557-1.270128 1.2863233zm-2.885569-4.2943408c-1.166795-.813977-3.361738-.9467756-3.435993-2.6195166 1.243645-.2114362 2.49508-.3754815 3.754303-.4957813.799672.9332353-.14124 2.1055081-.31831 3.1152979zm-2.760946-7.6012853c-.738917-1.2639298.785133-2.4325571 1.583247-3.2366394.470456-.3484009.287155.2369543.23367.5181748-.890544 2.2778859-1.392675 4.7088806-2.387592 6.9445834-.278846-1.4123517-.316234-3.0127045.570675-4.2261188zm-2.621781.2192478c-1.558841.5041138.627275-1.7961656 1.272724-2.2997585 2.598415-.4843242-.600792 1.5321308-1.272724 2.2997585zm83.313352-12.34297499c-.342717-.34527625-.799153-.91604966-1.087866-1.00510281-30.082203 1.95083686-60.145194 5.07707115-90.223763 7.41588811-.173436-.02343504-.699454.16560761-.450205.36871129 3.098988 3.1538356 6.083738 6.4243255 8.958922 9.7849102.627275-.359858.653238-2.6346192.87912-.3879801-.316234 1.2149766.52394 2.0570757 1.364635 2.7304425.7654.3437139 1.97062.4114152 2.315413 1.2248714-.54575.5681696-1.01361-.7202368-1.708909-.6790953.973107.7488797 1.661656 2.0112471 2.857529 2.3726675.728013-.0255181.052446.6957603-.071659 1.0149976.750341-.4244346.692184.5749397 1.086827.9665652.516152.8665757 1.803416-.1619621 2.294124.8202264 1.775894-3.289238 5.381168.9342769 7.749028 1.5232776-1.52405 1.6034775-4.126618 1.4925516-6.151242 1.7347137 1.555206 2.2450768 3.646296 3.99281 5.668323 5.7910587.713474.8670965 1.726565-.2317465 2.022547-.9582327-.353621-.2984062-1.571822-.4088113-.743071-.8691796 1.607132-.953025 3.371603-3.3788119 5.308471-2.6294115.079448-.0572856.238863-.1676907.318311-.2249763-.238863-.1078012-.472533-.2182063-.696338-.343714 1.206259-.6660759 2.357994-1.6513891 3.687319-1.9576069.709319-.8035615 2.654495-1.2680961 2.205329-2.5044246-.740476.3687113-3.689396 2.2023729-2.154441.9254237 4.157255-3.1179019 8.203388-6.3889126 12.367913-9.5000443 1.702159-1.1540455 3.089122-3.3079861 5.469444-2.7439828.639738-.2952815 1.734873-2.1971651 2.127439-1.0696794-.852637.3572542-1.485624 1.0358288-2.160153 1.6409736.205111-.0760337.414895-.1432141.63091-.2051868-.692702 5.0812374-1.453949 10.1577878-2.003334 15.2546485.653758-.7551291.922739-2.1055081 2.036048-2.2466391.65947-3.4892171.690626-7.2023689 1.620634-10.5645159.285597 1.8654291.516152 3.7407531.973627 5.5775394.265345-.6973226.605985-1.4222465 1.273763-1.8128305-.196803-2.3471494-.982454-4.5963924-1.089943-6.9576029 2.677863-.3379853 5.353648-.9275068 8.064744-.9124042.442935-1.9346927.739436-3.7329414 1.591035-5.85198978-1.121098-.59889546 1.755124-2.51223625 1.221836-.99468724-.361929 2.1351925-.652199 4.28184212-1.016206 6.41547232 7.697621-2.7361711 16.250995-4.1375865 22.936045-9.12924991.702049-.48067871 3.401721-.99000023 2.527794-2.01385108z"/><path d="m190 35.7413613c-2.071857-1.095288-5.506977-2.0801048-6.834109-3.7413613-.441658.1937173-.810515.5073298-1.165891.8188482 2.713043.252356 5.131109 2.3623036 7.737917 3.1811518.06579-.065445.196832-.1931937.262083-.2586387z"/><path d="m84 62c-.6662472.106-1.3368984.22-2 .32.7499214.035 1.4702737-.024 2-.32z"/><path d="m81 62c.1345932-.0161219.404811-.050966.5388886-.0691682.7420675-.7374473 1.576958-1.4005258 2.4995146-1.8930241.4703027 1.0109997.1712067 1.5029779-.4641145 1.7276445 4.2404598-.4269705 8.5510526-.946512 12.6739367-1.6725179-1.7455863-.9740753-2.3515136-3.9509077-3.6958988-5.6806324 1.8461446.5127807 3.5453195 1.5144192 5.4476734 1.8316568-1.7620882-1.0125599-3.8341018-1.3323977-5.6534308-2.2128619-1.5016684-2.7573664-2.9486744-5.5547775-4.6004065-8.2278939-.4929928-.8310584-2.2715828-1.2715505-2.5015774-.0369244-1.2721895 3.9316654-1.1406904 8.1686069-1.1504884 12.2578509.6482134 2.162936-2.011163 2.6762368-3.0940969 3.9758706z"/><path d="m98.923445 48.5474593c-1.2365763-.5541707-2.4922914-1.0335571-3.7405636-1.5474593-.0451887.0882071-.137161.2627037-.1828814.3509108 1.3227007.5784596 2.6666667 1.0981144 4 1.6490892-.0186071-.1137744-.0558214-.3394056-.076555-.4525407z"/><path d="m140.252158 43.8042954c.61775.4219201 2.291907-.5248142 2.275224.6385965-.82383-.0827508-2.135384.0386533-2.275224-.6385965zm-1.040215.1399141c-.410198.9211469-.111382 2.08238-.039744 3.0557905.421483-.3282811.894486-1.1209465 1.077996-.1459027.769366.3892553-.445035-1.7638983.510294-.7714333 1.082903.7746998.578006-1.6076518 1.643245-1.0087974 1.288983-.5199145.245825-3.1815499-.84542-3.0704896-.677611.1714901-.278699 1.3300011-1.077015 1.0305739-1.120193.2656735-.543168 1.6408609-.208043 2.3861624-.706561-.1263038-.36064-1.6261618-1.061313-1.4759038z"/><path d="m109 50.420806c2.100979.5993127 4.159196 1.3235864 6.243174 1.9698844.709428-1.9883786 1.724369-4.2236801 3.26172-5.5777569 4.319939 1.3455795 8.590933 2.8686035 12.902113 4.2506716.835136.1949391 1.059248 1.2076226 1.071097 1.9363949.486863-.4398625.845441-1.043174 1.521896-1.2316151-6.774343-2.4242424-13.620814-4.6620431-20.504894-6.7683849-.065431 1.3645736-2.160742 2.377757-3.188563 3.5024055.367852.7197751-1.051005 1.1941268-1.306543 1.9184005z"/><path d="m104.912224 48.7514368c-1.204713-.2780173-2.422386-.5334052-3.657732-.7514368-.062445.0452586-.192047.1375718-.254492.1828305 1.336082.264727 2.664507.545977 4 .8171695-.022386-.0610632-.067158-.1860632-.087776-.2485632z"/><path d="m101 49.2045184c1.0015.260008 2.001.527943 3 .7954816-.017-.0689655-.0535-.2080856-.071-.2774475-.8985-.2548553-1.7945-.5204122-2.714-.7225525-.053.0511296-.1605.1525961-.215.2045184z"/><path d="m106 50.4776946c.873931.7761971 1.723586-.7934358 1.463126.3942229 2.041702.5312254 4.049518 1.167698 6.068966 1.7642492 1.078253-.7176761 2.286483.3665501 3.467908.3638333-3.19531-1.2384727-6.722897-2.0037821-10.049195-3-.295862.1909871-.609426.3624672-.950805.4776946z"/><path d="m99.1789116 59.2201589c-.5932519 1.8958988.4345087-.3548842.9667054.3676155.558145-1.3256438.821191-.8418554.249817.2774357 2.138455.5405486 2.146087-1.1272482 2.749006-2.5340539 1.466848-1.2206108-.406526 2.2412346 1.118834 2.1712126-.06309-1.2609265.099723-2.9006085 1.168187-3.680399.738767.2885756-.400419 2.5133656-.392279 3.5366417 2.602982-.3432139 5.215123-.6620262 7.808437-1.0986028.128216-1.4529566.225395-3.0464877 1.026235-4.2989267 2.446274.3845906 4.656468 1.8858199 7.126146 2.2173635-4.919005-2.0110108-10.033895-3.5239104-15.071957-5.1784455-1.467866 2.1420368-3.997073 3.3727265-5.599769 5.4542897-.203009 1.0052402-1.111203 1.7012165-1.1493624 2.7658692z"/><path d="m229 1.55196795c.249404-.017.750596-.05 1-.068-.10825-.804-.804006-.482-1 .068z"/><path d="m233 .42195325c-.089773-.706-.80625-.411-1 .049.327841.139.669318.118 1-.049z"/><path d="m236 .44629011c-.234912-.555-.568245-.592-1-.113.310121.216.644383.254 1 .113z"/><path d="m221 1.5515514c.249404-.018.750596-.05 1-.064-.10825-.80799999-.804006-.487-1 .064z"/><path d="m225 1.55123329c.249404-.018.750596-.05 1-.064-.10825-.80799999-.804006-.486-1 .064z"/><path d="m104 11.5543782c.249523-.018.750477-.05 1-.068-.106393-.809-.803912-.483-1 .068z"/><path d="m108 11.5484755c.249762-.014.750238-.046 1-.061-.106768-.808-.802193-.486-1 .061z"/><path d="m111 10.5519694c.249404-.018.750119-.05 1-.064-.106819-.80899995-.802575-.487-1 .064z"/><path d="m115 10.5519694c.249404-.018.750596-.05 1-.064-.106819-.80899995-.802098-.487-1 .064z"/><path d="m119 10.5519694c.249404-.018.750596-.05 1-.064-.106342-.80899995-.802098-.487-1 .064z"/><path d="m123 9.55270374c.249404-.018.750596-.05 1-.068-.106342-.805-.804006-.483-1 .068z"/><path d="m126 9.54829273c.249404-.014.750596-.046 1-.06-.106342-.809-.802098-.487-1 .06z"/><path d="m130 9.55165144c.249762-.018.750238-.05 1-.064-.106768-.809-.804099-.486-1 .064z"/><path d="m134 8.55165144c.249404-.017.750119-.05 1-.064-.106819-.809-.804483-.486-1 .064z"/><path d="m138 8.54515386c.250478-.01.749522-.038 1-.048-.104207-.821-.801625-.496-1 .048z"/><path d="m142 8.64532727c-.059429-.922-.752925-.72-1-.236.327094.127.660271.326 1 .236z"/><path d="m149 7.57560079c.249403-.025.750119-.072 1-.094-.110368-.807-.81032-.477-1 .094z"/><path d="m153 7.55196945c.249404-.018.750596-.05 1-.064-.10825-.809-.804006-.487-1 .064z"/><path d="m157 6.55196945c.249404-.018.750596-.05 1-.064-.10825-.809-.804006-.487-1 .064z"/><path d="m162 6.42734059c-.086315-.713-.804656-.418-1 .046.329358.131.669506.118 1-.046z"/><path d="m164 6.5515514c.249762-.018.750238-.05 1-.064-.108675-.808-.804099-.487-1 .064z"/><path d="m168 6.5515514c.249404-.018.750119-.05 1-.064-.108727-.808-.804483-.487-1 .064z"/><path d="m16.0000039 19.7403102c.2506133-.121.7493828-.357.9999961-.477-.2653552-.439-1.0019617-.361-.9999961.477z"/><path d="m24 17.5519694c.2494039-.018.7505961-.05 1-.064-.1068193-.809-.8025751-.487-1 .064z"/><path d="m28 17.5519694c.2498808-.014.7505961-.05 1-.064-.1063424-.809-.8020982-.487-1 .064z"/><path d="m32 17.5539595c.2495229-.018.7485687-.049 1-.068-.1063931-.808-.8024809-.483-1 .068z"/><path d="m36 16.5492118c.2497617-.015.7502383-.047 1-.061-.1067684-.809-.8021926-.487-1 .061z"/><path d="m40 16.5519694c.2494039-.017.7501192-.05 1-.064-.1068193-.809-.8025751-.487-1 .064z"/><path d="m43 16.5519694c.2494039-.017.7501192-.05 1-.064-.1072961-.809-.8025751-.487-1 .064z"/><path d="m47 16.5515514c.2494039-.017.7501192-.05 1-.064-.1063424-.808-.8020982-.487-1 .064z"/><path d="m52 15.4278393c-.0857955-.714-.8045455-.418-1 .045.3295455.132.6715909.118 1-.045z"/><path d="m55 15.5524707c.2494039-.018.7505961-.051 1-.065-.1063424-.808-.8020982-.487-1 .065z"/><path d="m58 15.5521527c.2494039-.018.7505961-.05 1-.065-.1063424-.808-.8020982-.486-1 .065z"/><path d="m62 14.5519694c.2497617-.018.7502383-.05 1-.064-.1067684-.809-.8021926-.487-1 .064z"/><path d="m66 14.5519694c.2494039-.018.7501192-.05 1-.064-.1068193-.809-.8025751-.487-1 .064z"/><path d="m70 14.5527037c.2495229-.018.7504771-.05 1-.068-.1063931-.805-.8024809-.483-1 .068z"/><path d="m74 13.5482927c.2497617-.014.7502383-.046 1-.06-.1067684-.809-.8021926-.487-1 .06z"/><path d="m77 13.5565257c.2510719-.018.7508337-.058 1-.079-.1129109-.796-.8046689-.475-1 .079z"/><path d="m79.6504829 14c7.0796137-.6394346 14.1764552-1.1516431 21.2466721-1.9089407-.244845-.5568203-.264161-.9588764.102845-1.0910593-7.0655181.4433633-14.7329679 1.2353589-22 1.9216082.2187418.3574445.4155573.7297595.6504829 1.0783918z"/><path d="m101 11.0865207c.331048-.02.669931-.044 1-.064-.432909-.046-.75906-.02-1 .064z"/><path d="m182.647135 4.90721242c5.023558-.2755824 10.040992-.702849 15.052304-1.11918341.796013-.00683262-.203596-.675063-.536289-.78802901-5.388907.43728778-10.793122.66823038-16.16315 1.23260492.509244.32477728.837345 1.01714959 1.647135.6746075z"/></g><g fill="#fff" transform="translate(7)"><path d="m54.9044685 25.5177624c-2.047998-.2538463-3.7115521-2.0903855-5.9044685-1.3379813 1.1347385.9884619 3.2253918 1.0918273 4.749496 1.5956737.44788.1586539 1.5853528.5230771 1.1549725-.2576924z"/><path d="m117.056516 18c-.126338.6440486-1.821764.9184514-.640009 1.345243 3.238517 2.4150535 5.613983 5.8592463 8.531716 8.654757.395131-.3171334.724234-.7078871 1.051777-1.0929778-.077467-.0725906-3.503151-3.5734143-3.756347-3.8256795-.967031-1.1212933-1.993853-2.1962521-2.924491-3.3489498 1.064255.0339786 1.833201 1.0332578 2.893817.9982496-1.271179-1.437397-3.477675-2.2925247-5.156463-2.7306425z"/><path d="m163.90909 14.6612425c.060696-.2971825.268715-.9157624-.26518-.5475863-.905736.8497219-2.635297 2.0846804-1.79674 3.4203508-1.006504 1.2822876-.964075 2.9734763-.647628 4.465993 1.129077-2.3626011 1.698918-4.931579 2.709548-7.3387575z"/><path d="m65 29c-1.1327642-.5789256-2.6988519-.6458678-4-1 .9520165.5838843 2.6806005.7665289 4 1z"/><path d="m159.935808 15.0606697c-.685635.411821-3.007856 2.2929104-1.351963 1.8806635.713766-.6277396 4.112152-2.2767272 1.351963-1.8806635z"/><path d="m139 23.6821449c-.085617-.3445046-.174136-.6861019-.252981-1.0315756-.051757-.0925462-.15769-.2786077-.209931-.371154-.060947-.2950819-.184294-.8833077-.245725-1.1788742-.347305-.9971736-.061431-3.0956957-1.185093-3.1005411-.362783 1.1338125.296999 2.5118307.578035 3.6984576.244758.7529677.395192 1.5272551.561589 2.3015424.253949-.0954534.50693-.1981749.754106-.3178551z"/><path d="m63 30c1.2006292.6455212 2.5949884.8299558 3.7812121 1.5218349 1.2999779.5443314 2.6545976.9406166 3.9893476 1.3857521.4053427.0682907.8196269.1350859 1.2294403.0578227-1.6293189-.6136189-3.339607-1.0009317-4.9440888-1.688823-1.3342532-.4690621-2.6297604-1.1479809-4.0559112-1.2765867z"/><path d="m145 20.4279017c-.864148-1.0041917-2.067849.0664796-3 .1224624.870625 1.1196563 2.043331-.2160586 3-.1224624z"/><path d="m152.738121 22.1072642c-.23938.2295423-1.239564 1.1541364-.422793.8212124.346878-.0181064 1.074436-1.3007397.422793-.8212124z"/><path d="m75.1768773 32.9579922c.3694205.1228222 2.8946965.742381 3.4466605.9979305l.1538349.0440773c.0552506-.0638874.1679184-.1921573.2226273-.2580257-.907301-.2951695-3.166616-.9602914-3.3832849-1.018731-1.6607671-.4784123-3.3285759-.9498911-4.9395092-1.5560781-.6814237-.2709022-.9576765-.2406919-.3109198.300122 1.6000998.5061464 3.202908 1.0023877 4.8105912 1.490705z"/><path d="m143.555088 37.7717418c-.169959-1.0060158-.187059-2.0280163-.194313-3.0433136.532677-.1459264.798497.6971467.472051 1.0575798-.429043.5548298.985556 2.174974-.277738 1.9857338zm-.989183 8.5931582c-1.124944-.5672051-.591749 1.6892402-1.735346.9554829-1.008874-.9400136.273593 1.0993468-.538895.7306634-.193795-.9235131-.693309-.1727398-1.138416.1381918-.075652-.9219662-.391217-2.0218286.041972-2.8942933.739944-.1423169.374636 1.2782742 1.120798 1.397903-.353909-.7059127-.963275-2.008422.219703-2.2600548.84306.2836026.421789-.8136816 1.13738-.9761085 1.152406-.1051908 2.254032 2.4157783.892804 2.9082155zm-8.864305 4.571158c-1.099553 1.2148504-3.102792-.3269164-.989183-.8946372.777252.0216569-.958612 1.3442762.01399 1.0379855.307792-.5537985 1.153443-1.3045719.975193-.1433483zm-1.894942-18.5620469c-.445624.1918185-.160114-.6151598.039381-.1515984 2.001166.2738054.86016 1.8614642-.039381.1515984zm13.092558 9.2062555c-.24613-1.3581985 2.024484.2495703 1.515642-.8528703-1.15966-.2052251-.953947-1.3200411-1.138415-2.235304 1.386618.9204193.297428-1.4082157-.693309-1.1761772-.42438-1.6500514.773625-3.4718113.230066-5.2445853.482933-1.5515639.039899-1.6026124.24613-2.8422135-1.48507-.0716741-.75238-1.4876245-.623874-2.2291163-.09068.033001-2.651986 1.1617393-2.745774 1.2261944-.461688.2593675-.919749.5161567-1.386618.7610862-.095343.0531111-.288102.1557236-.385518.2067721-.519722.3573393-1.061726.9828119-1.752445.6404262-.086534.5094534.088607.6765211.57724.3882777-.881923 1.6454107-1.776799 3.7383977-3.73703 4.3102437.751344-.9302165.022281-1.6015812-.663255-2.275524-1.511497.2201787-2.937496-1.0926435-4.305979-1.6913027-.082906-.0696116-.24872-.2124441-.333182-.2820557-.200531-.1696459-2.759246-2.8844961-2.821944-2.9649361-.745644-.3712615-.886586.5197662-1.123907 1.0395324 1.641039 1.7036781 3.22767 3.4682018 4.892545 5.1491916.243539-.1980061.45806-.4279821.688127-.6430044-.844614 1.5768304 1.402682 2.8535577 2.384092 3.7301475 1.770581-1.913544.050781.8693708-1.165878 1.1426605-1.450871 1.2019594-4.68735.7141629-4.620507 3.0804397-1.498542 2.1424887-4.476974.887934-6.367251 2.430732-1.327548.7399449-2.318285 2.0476107-2.948378 3.4114813-1.122871-.1928498-2.159725-.7100378-3.240624-1.048814-2.174234-.5290477-4.243799-1.4015124-6.37917-2.0589547.007254.0819869.021763.2469921.026945.328979 1.812552.6543485 3.628732 1.3102439 5.488438 1.8279475 7.741952 2.3523546 15.437788 4.9816083 23.035689 7.7031619-1.067427 1.496906-2.140035 3.0154689-3.464991 4.2932274-.532159.9255757 1.051363 1.3860432 1.341019.3784806.140424 2.4549671 1.948313-.8492609 3.265497-.4460296 1.456571-.9585767 2.848371 2.0254381 3.716821.5857683-.050263-.577518-.181877-1.1271914-.267893-1.6938809 2.547833-.731179 4.264525-2.900481 6.055832-4.7052247 1.117171-.9554829.086534-2.5194222.802643-3.6141282-1.874733-1.864558-3.395039-4.0359225-4.100784-6.6306284z"/><path d="m153.759506 25.0984587-.175663.0069968c-1.411292-.179919.117275 1.144485.606836 1.5782898 1.413788 1.3958718.784994-2.3254535-.431173-1.5852866z"/><path d="m151.064217 25.0199337c-.380401.6561801 1.041461 1.0488748 1.325574 1.5631781 1.670569 1.5829396-.533684-1.8742937-1.325574-1.5631781z"/><path d="m125.297812 38.0583717c.241332-.0228002.486762-.044564.732705-.0621823-.048676-.0901645-.146541-.2699752-.194705-.3601396-.321775.0378276-.962764.1145192-1.28454.1523468-.556958.1197011-4.194867-3.465113-4.53765-3.7879432-.856189-.1487195-2.484537-2.153583-1.883514-.0331639 2.647475 2.8925169 5.91032 5.1284916 8.764284 7.8075157.403757.4819134 1.281466.1295466 1.074464-.483468-.952004-.3098755-1.116479-1.4519585-1.793335-2.0825915-.208539-.1901744-1.509475-1.1306829-.877709-1.150374z"/><path d="m150.363761 31.7576734c-.72287.11069-1.020823-.7122905-1.648471-.7576734.783792 2.1103058-1.926458-.3940566-1.484648 1.5430193.252903 1.6896836 1.896254-1.1611386 2.41588.4654516.517067 1.6044523-1.2384.1975818-1.790792 1.1334661-.667579.6038142.184301-1.1489627-.517579-.6082418-1.157001.6586058 1.09608 3.7712099.243687.9242619.733621.4383326 1.81895.4798414 2.177825 1.5170071 2.412808.3464599.552903-2.996933.604098-4.2172908z"/><path d="m128.14754 35.0307703c.119806-.0899136.540342.5245846.581571.6458882.184318.5400135-.551984 1.174197-.829431 1.3066732l-.146484-.0457548c.127083-.4687212.058206-1.6530268.394344-1.9068066zm-2.132752 2.1520738c-.061601.3559302.069361.5091557.390947.4639329.091674.0244735.274537.0707604.366211.0952339.97446.5650191-.219726.9145649-.709624.2883619.324497 2.2643328 3.036395-.1362004 4.149578-.2160054 1.865976-.0276657-1.458537-1.671648.371061-1.6844168 1.066618.8432725-.191109-1.4370213-.687312-.6724898 0 0-.447698.2319665-.633471.1149192-.20663-.1303481-1.106878-1.4598988-1.008413-2.2217702-.05384-.0872534-.163946-.2633564-.219726-.3506098-.182378.5187323.059175 1.8791409-.731451 1.4875645-.048505.048415-.144545.1479052-.193049.1968523.099919.0468189.289088.1436489.357965.2356906.05481.0728885.096524.2287742.114956.3234761.083428 1.5125701-.194989 2.5824886-1.567672 1.9392606z"/><path d="m120.810718 38.523387c.396072-.0431248.791609-.1016514 1.189282-.1601779-.146258-.1211603-.291982-.2402669-.437707-.3588602-1.76951-.0503123-3.17978.3147086-3.438134 2.2127146-.213515.8825189-.673641 3.9890471-1.124159 5.7402234.693925.383503 2.619836-1.9190551 3.431195-2.7656366-.144657.0164285-2.707377 1.8615553-2.731398 2.0905276-.280239-1.2290578.848191-5.2622565.897299-5.4522111.005872-.1155129.373652-.761872.662432-.6745956.388598.0497989.665635.3260032.881819.6217164.087008.0518524.261023.157611.347497.2094634 1.155653.5693505.467599-.3316505-.018149-.818345-.114765-.023616-.34376-.0703346-.458525-.0924104-.975232-.2474544-.024554-1.0488575.798548-.5524086z"/><path d="m94.347 49c-.086.138-.258.411-.347.55l.281.1c.086-.138.259-.411.344-.549z"/><path d="m102 50.6524411c-1.349294-.4909525-2.669536-1.0918402-4-1.6524411.0182919.1167634.0570276.3516559.0758574.4711506 1.2126429.5674291 2.4301276 1.1451007 3.6917286 1.5288494.057027-.0860362.175386-.2615227.232414-.3475589z"/><path d="m147.000726 44c-.021416.8422584.43617 1.3760186.708152 2 .851282-.5046566-.405474-1.7619325-.708152-2z"/><path d="m100.746811 51c.06418-.0614735.190775-.1816049.253189-.2421398-1.0086359-.2318161-2.0078508-.4824027-3-.7578602.0229637.0830596.0641806.2487095.084789.3322384.8684985.2604411 1.7523062.5053965 2.662022.6677616z"/><path d="m140 46c.122918 1.0605286 1.275755.8704177 1.999891 1 .014664-1.8218244-1.456897-.3393009-1.999891-1z"/><path d="m169.706172 42.7962865.248-.208c.106-1.579-2.016.56-.248.208z"/><path d="m151.55834 45.0034468c-.341551.5331448-.634941 1.2339047-.540385 1.9965532.4962-.3036411 1.59376-2.0887415.540385-1.9965532z"/><path d="m155.681167 44c-1.696796 1.4410416-2.739255 1.2673731-3.681167 3.9188665 1.292003.429234 2.624642-.9926401 4-.8230375-.039594-.6069684-.852826-.2973855-.94608-.8811206-.449596-.931072 1.533733-1.9603044.627247-2.2147084z"/><path d="m45.3762716 42.8405453c-.5227616-1.1301525-1.4966034-.6086634-1.363993.8634407.0271365.0793908.0865296.2392104.1146901.3186013.0640012.0939199 8.3442169 21.1875057 8.3698174 21.2632643 1.2749034.2350593.6645882 2.3910665 2.4950217 1.4990866l.0081922-.1847265c-2.9711905-14.1756825-5.675112-28.410519-8.5833253-42.6002117-.6825085.1987366-1.6005414 1.6148001-.9077927 2.275353.0808975 2.5669717.7813263 5.0405424 1.2830955 7.5405768.0276485.1375071 4.9828754 24.4933834 5.0427805 24.8161359-.0496649.0607107-.1474587.1842076-.1971236.2449183-.0138243-.0908066-6.2004337-15.9046395-6.2613628-16.0364387z"/><path d="m156.255567 47.1115943c-.768484.668316.409264.948756.744433.8776585-.102413-.5458704-.441849-1.2694845-.744433-.8776585z"/><path d="m165.100385 47.3262311c.557081-1.7139654-1.342785-1.6109666-1.948785-.574004-.889033-.2548149-.564569.8669071-1.1516 1.0230147 1.678231-.1405505 2.347128 3.3850148 3.906056 1.8260841.688364-.4044852 2.33315-.6147745 2.064593-1.8459328-.960914-.2456952-1.291868.6555448-1.929317 1.0927536l-.113313.0761762c-.899516 1.2333041-2.533819-1.5530297-.827634-1.5980918z"/><path d="m154.049596 49.5352025c-.740759-.1272045.132892-1.8658523-.56997-1.4792392.196054 1.5942233-1.437052 1.5920014-1.822591 2.866269-1.967104 1.7114293.990374 3.3884189 2.2435 4.0777677 1.361258-1.5520069 1.950429-3.8600201 3.099465-5.4531324-.43152-1.9402864-1.865035.9054299-2.950404-.0116651z"/><path d="m169.754693 48c-.601622.2830052-1.174052.6308063-1.754693.953356.160554.288246 2.803313-.8494921 1.754693-.953356z"/><path d="m119.924741 60.2084765c-.567537.1396435-.998492-.3423853-1.456868-.5859856 1.367883-.4835804 3.477652.0827517 4.512359-.9056142 1.137661.2239468 3.095327.3532464 2.083901-.3066986 1.627077.5409894 3.391253-.002586 5.111454-.0594778.392672.0268943.743438.2265329.99901.5218531-3.736328.5802964-7.521805.6506354-11.249856 1.3359231zm.667386-3.5743572c.686529.1877429 1.506534.2342908 2.066311.714768-.728434.0336179-1.541714-.2508412-2.066311-.714768zm15.351437-2.269466c-.390602.7406279-1.107655 1.3064428-1.316148 2.1380976.890883-.8492395 1.592415-1.8608794 2.372584-2.8037318-1.033155-.4013458-2.100456-.7390763-3.21018-.4577205.147963-.769591-.901747-1.0762896-1.022808-.2254984-.633758-.1949838-1.723305-.2534272-1.480666-1.1357674-4.205051-1.7279594-8.624286-2.9361346-12.904354-4.4747994-1.258721 1.2402414-3.052386-.6635654-4.596687-.777349-2.749218-.7757974-5.392378-1.8701889-8.145217-2.6278844.00983.0874065.02742.2606679.03725.3480744.175383.057409 5.397033 1.8769125 7.256403 2.3129107 6.91288 2.1794735 13.787993 4.4949701 20.590677 7.0033817-.679286.1949838-1.039364.8192421-1.528263 1.2743766-.011899-.7540751-.236948-1.8019188-1.075578-2.0036261-4.329216-1.4300532-8.618078-3.0059564-12.956089-4.3982541-1.543783 1.4010901-2.56297 3.7140008-3.275366 5.7714155-2.092696-.6687374-4.159524-1.4181577-6.269292-2.0382784.256607-.7494203 1.692781-1.2448962 1.300627-1.9855242 0 0-1.746586 1.4610852-1.94525 1.7496818-1.0792-.2254985-2.114942-.6056392-3.153788-.9604372.018107.0899925.057426.2699775.077085.3579012.868637.3253177 1.742965.6635654 2.658164.8456192 3.402635 1.1357674 7.011177 2.0082808 10.279818 3.4202321-1.208538.0031032-2.444496-1.2330007-3.547495-.414793-2.065793-.6801157-4.119687-1.4057449-6.208244-2.0113841.266437-1.354025-.602717.435481-1.496704-.4494453-.880019-.2663571-1.739343-.579262-2.609015-.8678586.018108.0905097.055874.2720462.073464.3625559.733608.2792871 1.482736.5301283 2.24842.7209744 5.122836 1.6131414 10.323793 3.0881909 15.325568 5.0488895-2.511235-.3232489-4.758619-1.78692-7.246056-2.1618887-.814314 1.2211051-.913129 2.7747687-1.043502 4.1913747-2.636952.4256542-5.293046.7364903-7.939827 1.0711176-.008278-.9976754 1.150077-3.166805.398879-3.4481608-1.086442.7602814-1.251996 2.3589413-1.187844 3.5883216-1.551026.0682701.35387-3.3069658-1.137661-2.1168926-.613064 1.3716098-.620824 2.9976812-2.795262 2.4706562.580989-1.0912884.313517-1.5629732-.25402-.2704947-.5416696-.7044241-1.5862067 1.4900482-.9829723-.3584184.0388016-1.0380169.9622783-1.7165811 1.1687023-2.6966718l-.130373.1101632c-.232292.2063621-.4609625.4158274-.7051535.6087424-.0838113.0630982-.9379622 1.1161139-1.20233 1.132147l-.1148525.0175847c-.1215781.1587799-.2540207.3072158-.3973276.4463422-.0869155.057409-1.3249429 1.2386898-1.3249429 1.2386898-4.6691171.8151045-9.5844946 1.3757474-14.3596692 1.8288131-.0982972-.0005172-.296961-.0005172-.3973276-.0010344-.134512.0181019-.4056053.0527542-.5406347.0687874-1.7367563.2761838-3.4781689.5032339-5.2237203.6863221l-9.3046062 1.0473264c-1.099894.1794678-2.2054788.3620388-3.3208934.3279037-.3874979.0289631-.7724091.0630982-1.1573202.0967161 1.3880599-1.0545672 9.5187907-9.3199128 9.5963937-9.3881829-.0289718-.0848205-.0879501-.2523928-.118474-.3366961-1.9550796 1.8898425-10.1287507 9.3416351-10.601612 9.555238-1.1076542.7882101-2.6012544.6196035-3.895156.834758-.6580739.1267136-1.3337378.1494703-2.0000894.1246448l-.1759002.0139643c-.5525338.0641326-1.1143799.127748-1.658636.1965354-1.5955188.1960181-3.1739649.5032339-4.7751746.6268443-1.3725394-.0961989-2.6773054.5699525-4.0369109.4411701-2.0766578.0868893-5.5982844.5544365-9.4867148 1.0519813-3.0813586.394105-9.5151692 1.2857549-10.4981412 1.5479744-.5633982.1499875-13.1309542 3.9503603-15.36592221 6.4737707-.26333304.7866586-.40043177 1.3871257.37352937.3139393 3.67838484-1.3297167 7.74219814-2.0734478 11.61407314-3.0245754 5.2045782-2.2627424 11.3357369-1.9912134 16.9257436-3.0721577 16.1491957-1.8132972 32.2859749-3.8024417 48.4434483-5.5412623 6.623162-2.1655091 14.1692833-1.9384591 21.1576973-3.1905961.520975-.2099825.624963.2498068.750162.6516698 7.732369-.9930206 15.476119-1.8872564 23.219869-2.7504604 1.605866-1.8763953 2.237037-4.6247869 4.251613-6.127765z"/><path d="m201.012752 46.8107923c.155556-.9223587.176745-1.8709676.442379-2.7732526 1.450652.3016195 2.453241 1.6604515 3.94317 1.9667035-.31318.0627945-3.855314.7226515-4.385549.8065491zm30.150001-4.7898829c-.309562.0432356-17.689999 2.7526643-18.261061 2.8288412-.446513-.0386031-1.58812.5970626-1.296646-.1575009.269768-2.0248656 4.134901-28.8170184 4.134901-28.8170184.362276-2.1087632.651166-4.2303941 1.011374-6.34070143.530752-1.49986232-1.698198.15132448-1.698198.15132448s-.660468 4.70341175-1.101297 6.61555605c0 0-3.85118 24.1851512-3.931283 24.3488287-.122481-.7411811-2.834121-15.3434783-2.853243-16.019806-.039793-.1363979-.117313-.412282-.157106-.5507388-.664603.3860319-1.003622 1.1025069-1.267706 1.7917024.03721.2197808 3.139549 19.4220332 3.139549 19.4220332s-.845482.251178-1.135406.3844877c-.772096.3561787-5.613978-1.7901583-6.34318-2.5987663l.006719-.1677951c.051163-.104486 1.689929-11.8326475 1.725072-11.9427953l.025323-.1683099c-1.108015.1394862-1.375717 1.4741269-2.026365 2.2204551-.004652.081324-.014471.2398544-.019122.3191196-.02739.1111772-1.19277 8.93535-1.216543 9.0460125-2.32249-.8461818-10.561802-5.0585611-10.735446-5.1023113l-.141603-.0658828c-.062533.0643386-.188115.1899277-.251164.2542663.094057.0391179.280621.1219861.372611.1631628.066667.0355149 8.050681 4.1706878 10.40418 5.1295909.147804.3119137.145737.6577982.139535.9980209-.002584.0787505-.364859 3.0908282-.364859 3.0908282-1.00879.5347827-14.230553 3.1114165-14.79748 2.1890578-2.687867-3.593699-5.642918-6.9964408-8.815025-10.1655048.317314-.2743399 5.645502-4.5325283 5.645502-4.5325283.34057-.3062519.69406-.6145627 1.117318-.805005.181396-.0833829 19.893625-15.2636984 20.027993-15.3928904.671321-.5980919 1.301297-1.2687579 2.14988-1.6218483-.390699-1.1143452-1.480627.7653724-2.117322 1.0572124-.27597.2130896-15.081202 10.9396273-15.608336 11.1866876.447031 1.2219194-1.488895 1.68104-2.194841 2.4752361-.171577.1266184-2.696653 2.0933219-2.976757 2.2744995-.07907.056618-.237727.1657363-.316798.2223543-1.453753 1.2291254-3.009315 2.3362646-4.543688 3.4578158-.294575.7180192-1.302848 1.8040554-2.012929.9470647-2.012412-1.7772905-4.093558-3.5046542-5.641368-5.7235652.011887-1.0160357-.929203-.9367705-1.60104-1.4499355-.369511.0298531-.566928-.3793406-.251164-.6089009.283205-.3314726.341603-.7437546.262016-1.1611837-.488374-.9707414-1.769516.0458091-2.283214-.8106668-.392766-.3870613-.334885-1.374788-1.081658-.9553001.123515-.3155167.795869-1.0283888.071318-1.0031681-1.190186-.3572081-1.87546-1.6048629-2.84394-2.3450146-.206202-.1760305-.406203-.3582376-.60362-.5394152-.836696-.6655188-1.672875-1.4978034-1.358145-2.6986198-.224807-2.220455-.250647.0277943-.874939.3834583-2.861511-3.3214178-5.832067-6.553791-8.916318-9.6708693-.248063-.2007365.275453-.3875759.448064-.364414 29.935529-2.31155859 59.855555-5.40135731 89.794702-7.3294576 0 0-.652199-.57390065-.956076-.78235783-1.245484-.85338769-3.003631-.83743171-4.514232-.63823929-.197933.07257398-.383981.05301504-.556591-.05816213-.531269-.05404445-1.052718-.00926476-1.562798.13742733-.300776.08595642-.611372.09676531-.909564.02522075-.848066-.13279495-1.698716.18941295-2.521975.254781-.270285.00926477-.812923.02625017-1.083726.03500022-.918867-.08647113-1.833599.17139813-2.72611.2825753-.270285.00720593-.81344.02367662-1.083725.03294138-.918867-.08647113-1.8336.17139813-2.72611.2825753-.270286.00720592-.81344.02367662-1.083726.03294138-.918867-.08647113-1.833599.17139813-2.72611.28257529-.270285.00720593-.81344.02367662-1.084242.03088255-.856335-.06588276-1.707501.14875093-2.536445.25735455-.270286.00926476-.81344.02573546-1.083726.03500022-.918867-.08698584-1.833599.17139813-2.72611.2825753-.270802.00720592-.81344.02367661-1.083725.03294138-.918867-.08698584-1.832049.17088342-2.72611.28257529-.270802.00720593-.81344.02367662-1.083726.03294139-.918867-.08698584-1.832049.17088342-2.72611.28257529-.270802.00720593-.81344.02367662-1.083725.03294138-.918867-.08698583-1.83205.17088343-2.72611.28206059-.270802.00772064-.81189.02367662-1.082175.03088255-.341087-.02933842-.68114-.00669122-1.010341.05250033.336953.12764785 1.34936.8827261.543155.89044674-5.075474.47044412-10.15715.95324125-15.245027 1.26464026-.820158.38706124-1.15246-.39529659-1.668224-.76228418-.100259.01338244-.298193.04375027-.396384.05867684-.300777.08441229-.610856.09676531-.911115.02727958-.910082-.1302214-1.821197.198163-2.711123.28051646-.271319.00720593-.81344.02367662-1.084242.03294138-.918351-.08647113-1.831533.17088342-2.725594.2825753-.270802.00720593-.81344.02367662-1.083725.03294138-.918867-.08647113-1.832049.17088342-2.72611.2825753-.270802.00720592-.81344.02367661-1.083726.03294138-.918867-.08647113-1.832049.17088342-2.72611.28257529-.270802.00720593-.81344.02367662-1.084242.03294139-.915249-.07772108-1.8336.14257442-2.725593.26867815-.300777.08441229-.610339.09110351-.910082.02367662-.909047-.12867728-1.820679.198163-2.711122.28051646-.270286.00720592-.813441.02367661-1.083726.03294138-.918867-.08698584-1.829982.17088342-2.72611.28257529-.270285.00720593-.81344.02367662-1.083725.03294139-.918867-.08698584-1.829466.17242754-2.728178.28051646-.270285.0113236-.811889.03551492-1.081658.04838265-.521449-.0113236-1.096129.1863247-1.44135-.26301635-2.746782-2.84170894-5.57315-5.60157913-8.314764-8.44586162-.157624-.1863247-1.287861-1.14471304-.878557-.37831119 2.111637 3.22207897 4.89046 6.02878769 6.993828 9.25549904-.95711.19044236-1.939543.25992809-2.901304.37059055-.375195.04632382-.743156-.05610329-1.104398-.12147135-.853233-.07205927-1.619645.60323908-2.511121.46323818-.270803.0051471-.81034.019559-1.081142.024706-.920417-.0823534-1.831533.1729423-2.72766.2846342-.270803.0072059-.813441.0241913-1.083726.0329414-.917317-.0869859-1.830499.1708834-2.72611.2825753-.270802.0072059-.81344.0236766-1.084242.0329413-.9168-.0869858-1.829982.1708835-2.72611.2825753-.270286.007206-.81344.0236767-1.083726.0308826-.854784-.0663975-1.703883.1482362-2.536962.2573545-.270285.0092648-.81344.0257355-1.083725.0350003-.9168-.0869859-1.829982.1708834-2.72611.2825752-.270286.007206-.81344.0236767-1.083726.0329414-.9168-.0869858-1.829982.1708835-2.72611.2825753-.270285.007206-.81344.0236766-1.083725.0329414-.9168-.0869858-1.827915.1703687-2.72611.2825753-.270802.0072059-.81344.0236766-1.083726.0329414-.9168-.0869859-1.828432.1703687-2.72611.2825753-.270802.0072059-.81344.0236766-1.084242.0308825-.854267-.0663974-1.703884.1482362-2.536962.2573546-.270285.0092647-.812923.0257354-1.083209.0350002-.902329-.0756622-1.79794.1683099-2.684249.2496339-.8811409-.0916182-.9565934.3500022-.62946 1.0525801-6.9989967.707725-14.02435 1.1864045-21.0326489 1.7839818-.2325592-.3258109-.427392-.6737543-.6439304-1.0078005-.1018093.0154413-.3033605.0483827-.4051697.063824-.2702854.0108089-.8124066.0313972-1.0847592.040662-.9173166-.0890447-1.8279149.1724275-2.72611.2825753-.2708022.0072059-.8134402.0236766-1.0842424.0308825-.8542672-.0663974-1.7018161.1482363-2.5369618.2573546-.2702854.0092647-.8129234.0257354-1.0832088.0350002-.9173166-.0869858-1.8279148.1724275-2.7261099.2825753-.2708022.0072059-.8134402.0236766-1.0837256.0329414-.9173166-.0869859-1.8263645.1703687-2.72611.2825753-.2708022.0072059-.8134401.0236766-1.0842423.0329414-.9167999-.0869859-1.8258477.1703687-2.72611.2820605-.2702854.0077207-.8134402.0241914-1.0837256.0334561-.9167998-.0869858-1.8258476.169854-2.7261099.2820606-.2702854.007206-.8134402.0241914-1.0837256.0334561-.9157662-.0777211-1.8279149.141545-2.7261099.2686782-.2987093.0838975-.6098218.0911035-.9095647.0231619-.9090478-.1281626-1.8170621.198163-2.7111228.2805164-.2708022.007206-.8134402.0241914-1.0837256.0329414-.9167998-.0869858-1.8263644.1703687-2.7261099.2825753-.2708022.0072059-.8134402.0241913-1.0837256.0329414-.9167998-.0869858-1.8263644.1703687-2.7261099.2825753-.2708022.0072059-.8134402.0241913-1.0837256.0329414-.9173166-.0869859-1.8263645.1703687-2.72611.2825753-.2708022.0072059-.8134401.0236766-1.0842423.0313972-.8527169-.0669122-1.7002658.1477215-2.5369619.2568399-.2723526.0097794-.8129234.0257354-1.0832088.0350002-.9824331-.0838976-1.9514296.1868394-2.9157748.307796-.2702854.007206-.8129234.0257355-1.0837256.0329414-.9819164-.0823534-1.9509128.1868394-2.915258.307796-.2702854.007206-.8134402.0236767-1.0837256.0329414-2.4873492.1240449-4.9798664.5404446-7.430523.9933886-.263567.0617651-.7881171.1832364-1.0516841.2455162-.5834651.056618-5.89976702 1.5065536-5.9850387 1.5585392-1.7602143.5198562-3.43619051 1.3356701-5.11164992 2.0845718-.09199006.0432356-.27493659.132795-.36692665.1775747-.74212206.1966189-1.51886959.2362515-2.2480717.5275768-.77312994.3083108-1.25530256.5950037-1.66925783.8513289.50904612.7380928 1.27959207.610445 2.03825167.2486045 6.82896998-.4375028 13.23985033-3.2020054 20.05900113-3.8716419 41.4348038-3.844877 82.9336902-7.2563689 124.4072542-10.929333 4.595369 6.2248918 10.88015 11.7472058 14.51014 18.2546729.415506-.1343391.804655-.3335315 1.210341-.497209-.442379 1.054639 1.324037 1.6269955.934888 2.862812 1.618611-.8163286 1.424295 2.4592801 2.837738 1.6954518-.242895.3011048-.514731.5847096-.693543.9311088 2.011895.1827217 2.841356 2.6291341 4.154023 3.9009803.296125.4688999.569512.9563295.803621 1.4643473-1.908535.5188268-.259432.6922838.617057.909491.754525.2985313.101809.9722855-.410854 1.1153746.233592.2604428.573129-.0360296.858918-.0432355.860986.0715445 1.25737 1.2600079 1.774685 1.9142031.248063.323752.497676.6490482.761243.9630207 1.668225 1.7654523 3.165389 3.6914937 4.970048 5.332901-.514731.141545-1.005173.2913254-1.497681.4606647-.139019.0138971-.242379.0416914-.280105.0967653-1.031529.1775746-2.058924.3412521-3.082184.525518-.626876.2789723-1.339024.2969871-2.005693.339708-.123515.028309-.370028.0859564-.493026.1137507.563827 1.7783199 3.794849 2.7922969 4.412423.6459599 1.313184-.5641212 2.759185-.6531658 4.17056-.7854461 2.080113 1.8771441 4.025341 3.9128186 6.080647 5.8239335 1.679593 1.063389 2.66461 3.4645069 4.882191 3.4377421.07907-.0102942.240311-.031912.319898-.0422062 1.762282-.7756666-.213437-3.1217107-.897161-4.1145845-1.435149-2.0665571-3.02637-4.0203928-4.465136-6.084891 1.549361-.5975773 3.244975-.6222833 4.87444-.8796379 1.327654-.8286816.864603.2552958.885792.787505 12.971115-2.3486177 25.977373-4.4928958 38.953656-6.8173221 1.44445-.2326485 3.242908.0499268 4.35144-1.1333894-.713182-.505959-2.916292-.8271375-3.88012-.6943426z"/><path d="m220.673439 49.0254279c-1.169475.8254817-2.396928 1.4733202-3.673439 1.9745721 1.915758-.2888254 5.02775-.0484481 7-1.4714569-1.379584.4186416-2.776511.8099535-4.195243.9298316.350843-.2813719 1.625372-1.6615227.868682-1.4329468z"/><path d="m212.783 51.4817367c.351458.5034459-2.084334-.0334252-1.751695.5182633 1.006563-.0771881 1.953109-.3721571 2.977474-.4059269-1.21815-.3611303 1.112865-.2484494.986218-.5940731-1.194244.0771881-2.385438.2084769-3.567475.3190903.332638.224328.916537.1006202 1.355478.1626464z"/><path d="m40.6854798 76.301545c-1.3108357.8488168-1.2445151-1.5783141-2.1669737-1.2751653-1.1550829.6499511-2.2197287 1.5084687-3.5185061 1.8785528 1.3254061.3894857 5.0463909-1.2024096 5.975381.0950675 2.0077039-.3894856 3.9963155-.8740388 6.024619-1.1573011-1.9037012-.4559358-4.2716463.3613535-6.3145202.4588461z"/><path d="m216.577186 51.345464c-.524594.1436365-2.41065.4296438-1.152097.5372129 1.376838.6618665 4.335739-1.7470492 1.152097-.5372129z"/><path d="m9.42253166 79.0000063c-.1410814.108206-.28145026.2134716-.42253166.3216776.29391958 1.6971877 1.8126822-.3257942.42253166-.3216776z"/><path d="m33.3892087 77.8514677c.3068684-.6934452 1.814433-.3429707 2.0693534-.8514677-2.4876155.2524829-4.9725533.5495476-7.4585621.8152726 1.2392556.2944162 3.0210202.0538512 4.4471817.0247186-.8536618.6435665-2.4795823.6122269-3.2389878 1.1600088 2.2771455-.2838226 4.5360824-.694328 6.7918061-1.085853-.5253715-.3354668-1.769447.1143235-2.6107913-.0626793z"/><path d="m41.1177649 77.128518c-.9945458.3900033-2.3987088.0273879-3.1177649.871482 1.664626-.0859979 3.3470614.0536802 5-.2207462-.4930988-.7312561-1.1219947-.9470725-1.8822351-.6507358z"/><path d="m87.2229039 77.2057792c1.3317996.5864398 2.7218814.9745159 4.0521472 1.5794944.2781186.13904 1.049591.221846.4095092.5530702.7101227.16623 1.9268916 1.2408547 2.3154397.2410026-2.3123722-.8861482-4.6140082-2.126385-7-2.5793464.0552147.0512903.1671779.152635.2229039.2057792z"/><path d="m87.2584158 77.2765432c1.2643565.1769547 2.4782179.5436214 3.7415842.7234568-.039604-.0860082-.120297-.2563786-.159901-.3423868-1.3272277.0432098-2.5356436-.5419753-3.840099-.6576132.0643564.0679012.1935644.2069959.2584158.2765432z"/><path d="m136.112432 62.8544561c.005139-1.0024259-.010794-2.2938535 1.024349-2.8127074.86913.1286757.101253 2.7499261-1.024349 2.8127074zm-.136203-2.505027c-.340251 2.9408644-.637842 5.8895116-.86142 8.8417908-.190684 1.8445259-.788436 7.9135611-1.114809 9.8436979 1.212978.9578045 2.222936 2.327579 2.883906 3.9650822.402956-1.9825411 3.861998-16.5374332 3.89849-16.7205887.278574-2.2653165 1.067524-4.4642197 1.217604-6.7316116-1.308577-2.576629-5.16081-1.6779738-6.023771.8016294z"/><path d="m178.982961 77.8105102c-.004158-.0035714-.017154-.0137754-.037948-.030612.014036.007653.025992.017857.039508.02551 0 .0020408-.00104.0035714-.00156.005102zm2.655835-1.0632558c-.045225-.1469374-.09409-.2913239-.145554-.4326492-.052503-.1418354-.108125-.2806097-.166347-.4153024-.085772-.2316306-.190259-.4709141-.31294-.7081569-.073297-.1423457-.153351-.2836709-.239644-.4224452-.200656-.3234665-.435621-.631627-.701257-.8969308-.113843-.1137745-.232886-.2193858-.358686-.3158135-.12424-.0959175-.254718-.181631-.389875-.2556099-.045226-.0249998-.090971-.0479588-.137237-.0698974-.09305-.0438771-.18766-.0821421-.284869-.1142846-.048865-.0158162-.097729-.0301018-.147633-.0428568-.199097-.0505098-.405471-.0749993-.621202-.0678565-.161669.005102-.34725-.0173468-.498522.0714279-.1887.1107133-.266675.3362215-.355047.5275463-.21989.4785671-.256798 1.0423376-.143474 1.6086591.111244.5591786-.013516.7846868-.013516.7846868s-1.171187-1.1831527-2.19838-2.7377306c-2.721854-4.1178203-6.392926-9.6279751-7.958668-11.9590767-1.28815-2.1469195-2.681307-4.2366968-4.093697-6.300964-.878521 1.659679-2.290391 2.8566071-3.872248 3.8341494.395074 2.5550792 2.813865 4.2836351 3.745928 6.6621853l8.751935 9.7585861 2.717695 2.6698741s2.053347 1.5535575 2.124044 1.7280458c.057702.1581618.122162.3219359.193379.4887711.047825.1107133.099288.2229572.153351.3352011.027031.0561219.054063.1127541.083693.168876.085253.1683659.178824.3362215.278632.5005058.200136.3280582.428343.6408105.682543.9132571.127359.1362233.261476.2622425.401832.3744864.140875.1127541.287468.2117328.441339.2943852.101888.0551015.207414.1030603.31554.1423456.107086.0392854.21885.0704076.331654.0923461.057182.0107142.114884.0193876.173105.02551.116443.0122448.235485.0147958.357127.0071428.243802-.0163264.498521-.0755095.763637-.1846922 1.188861-1.066317 1.574579-2.6545681 1.467493-4.224452-.042627-.6275454-.163748-1.2525398-.344131-1.8392693z"/></g></g></svg>